<svg width="20" height="20" viewBox="0 0 20 20" fill="none" xmlns="http://www.w3.org/2000/svg">
<g clip-path="url(#clip0_1404_27866)">
<path d="M7.49992 5.83325H4.99992C4.55789 5.83325 4.13397 6.00885 3.82141 6.32141C3.50885 6.63397 3.33325 7.05789 3.33325 7.49992V14.9999C3.33325 15.4419 3.50885 15.8659 3.82141 16.1784C4.13397 16.491 4.55789 16.6666 4.99992 16.6666H12.4999C12.9419 16.6666 13.3659 16.491 13.6784 16.1784C13.991 15.8659 14.1666 15.4419 14.1666 14.9999V12.4999" stroke="#0D0D0D" stroke-width="1.5" stroke-linecap="round" stroke-linejoin="round"/>
<path d="M7.5 12.5H10L17.0833 5.41669C17.4149 5.08517 17.6011 4.63553 17.6011 4.16669C17.6011 3.69785 17.4149 3.24821 17.0833 2.91669C16.7518 2.58517 16.3022 2.39893 15.8333 2.39893C15.3645 2.39893 14.9149 2.58517 14.5833 2.91669L7.5 10V12.5Z" stroke="#0D0D0D" stroke-width="1.5" stroke-linecap="round" stroke-linejoin="round"/>
<path d="M13.3333 4.16675L15.8333 6.66675" stroke="#0D0D0D" stroke-width="1.5" stroke-linecap="round" stroke-linejoin="round"/>
</g>
<defs>
<clipPath id="clip0_1404_27866">
<rect width="20" height="20" fill="white"/>
</clipPath>
</defs>
</svg>
