<svg width="484" height="27" viewBox="0 0 484 27" fill="none" xmlns="http://www.w3.org/2000/svg">
<path d="M0.626222 6.52139H3.0472L6.18024 18.6263H8.3164L12.0191 6.52139H14.4401L8.45881 26.1741H6.03783L7.74675 20.7625H4.47131L0.626222 6.52139ZM17.6837 18.9396C16.2786 17.5345 15.576 15.7686 15.576 13.6419C15.576 11.5153 16.2786 9.74936 17.6837 8.34425C19.0888 6.93913 20.8547 6.23657 22.9814 6.23657C25.108 6.23657 26.8739 6.93913 28.279 8.34425C29.6841 9.74936 30.3867 11.5153 30.3867 13.6419C30.3867 15.7686 29.6841 17.5345 28.279 18.9396C26.8739 20.3447 25.108 21.0473 22.9814 21.0473C20.8547 21.0473 19.0888 20.3447 17.6837 18.9396ZM19.3072 9.8538C18.3388 10.8412 17.8546 12.1039 17.8546 13.6419C17.8546 15.18 18.3388 16.4427 19.3072 17.43C20.2755 18.4174 21.5003 18.9111 22.9814 18.9111C24.4624 18.9111 25.6872 18.4174 26.6555 17.43C27.6239 16.4427 28.1081 15.18 28.1081 13.6419C28.1081 12.1039 27.6239 10.8412 26.6555 9.8538C25.6872 8.86642 24.4624 8.37273 22.9814 8.37273C21.5003 8.37273 20.2755 8.86642 19.3072 9.8538ZM33.5086 14.9236V6.52139H35.7872V14.7812C35.7872 16.1483 36.129 17.1832 36.8125 17.8858C37.4961 18.5693 38.436 18.9111 39.6323 18.9111C40.9424 18.9111 42.0058 18.4839 42.8223 17.6294C43.6388 16.756 44.047 15.6167 44.047 14.2116V6.52139H46.3256V20.7625H44.047V18.6263H44.0185C43.7147 19.101 43.3349 19.5092 42.8792 19.851C41.8539 20.6485 40.6291 21.0473 39.205 21.0473C37.4771 21.0473 36.091 20.5061 35.0466 19.4238C34.0213 18.3225 33.5086 16.8224 33.5086 14.9236ZM50.3086 20.7625V6.52139H52.5872V8.79996H52.6157C52.8815 8.32526 53.2043 7.92651 53.5841 7.60371C54.5145 6.78722 55.6538 6.37898 57.0019 6.37898H58.7108V8.65755H57.0019C55.7107 8.65755 54.6474 9.07529 53.8119 9.91076C52.9954 10.7272 52.5872 11.7811 52.5872 13.0723V20.7625H50.3086ZM70.2505 18.9396C68.9214 17.5155 68.2568 15.7496 68.2568 13.6419C68.2568 11.5342 68.9214 9.77785 70.2505 8.37273C71.5797 6.94862 73.1937 6.23657 75.0925 6.23657C76.2888 6.23657 77.2951 6.46442 78.1116 6.92014C78.9471 7.37585 79.5547 7.86954 79.9345 8.40121L80.1908 8.82844H80.2193V6.52139H82.4979V20.7625H80.2193V18.4839H80.1908L79.9345 18.8826C79.5927 19.3953 79.0041 19.889 78.1686 20.3637C77.3331 20.8194 76.3077 21.0473 75.0925 21.0473C73.1937 21.0473 71.5797 20.3447 70.2505 18.9396ZM71.9025 9.8538C70.9911 10.8412 70.5354 12.1039 70.5354 13.6419C70.5354 15.18 70.9911 16.4427 71.9025 17.43C72.8329 18.4174 73.9912 18.9111 75.3773 18.9111C76.7635 18.9111 77.9122 18.4174 78.8237 17.43C79.7541 16.4427 80.2193 15.18 80.2193 13.6419C80.2193 12.1039 79.7541 10.8412 78.8237 9.8538C77.9122 8.86642 76.7635 8.37273 75.3773 8.37273C73.9912 8.37273 72.8329 8.86642 71.9025 9.8538ZM86.4954 14.9236V6.52139H88.7739V14.7812C88.7739 16.1483 89.1157 17.1832 89.7993 17.8858C90.4829 18.5693 91.4228 18.9111 92.619 18.9111C93.9292 18.9111 94.9925 18.4839 95.809 17.6294C96.6255 16.756 97.0338 15.6167 97.0338 14.2116V6.52139H99.3123V20.7625H97.0338V18.6263H97.0053C96.7015 19.101 96.3217 19.5092 95.866 19.851C94.8406 20.6485 93.6159 21.0473 92.1918 21.0473C90.4639 21.0473 89.0777 20.5061 88.0334 19.4238C87.008 18.3225 86.4954 16.8224 86.4954 14.9236ZM102.014 8.65755V6.52139H103.865V3.38836H106.144V6.52139H110.701V8.65755H106.144V18.6263H110.843V20.7625H103.865V8.65755H102.014ZM114.951 18.9396C113.546 17.5345 112.844 15.7686 112.844 13.6419C112.844 11.5153 113.546 9.74936 114.951 8.34425C116.356 6.93913 118.122 6.23657 120.249 6.23657C122.376 6.23657 124.141 6.93913 125.547 8.34425C126.952 9.74936 127.654 11.5153 127.654 13.6419C127.654 15.7686 126.952 17.5345 125.547 18.9396C124.141 20.3447 122.376 21.0473 120.249 21.0473C118.122 21.0473 116.356 20.3447 114.951 18.9396ZM116.575 9.8538C115.606 10.8412 115.122 12.1039 115.122 13.6419C115.122 15.18 115.606 16.4427 116.575 17.43C117.543 18.4174 118.768 18.9111 120.249 18.9111C121.73 18.9111 122.955 18.4174 123.923 17.43C124.891 16.4427 125.376 15.18 125.376 13.6419C125.376 12.1039 124.891 10.8412 123.923 9.8538C122.955 8.86642 121.73 8.37273 120.249 8.37273C118.768 8.37273 117.543 8.86642 116.575 9.8538ZM130.776 20.7625V6.52139H133.055V8.65755H133.083C133.368 8.20183 133.738 7.80308 134.194 7.4613C135.238 6.64481 136.473 6.23657 137.897 6.23657C139.625 6.23657 141.001 6.78722 142.027 7.88853C143.071 8.97085 143.593 10.4614 143.593 12.3602V20.7625H141.315V12.5026C141.315 11.1355 140.973 10.1101 140.289 9.42657C139.606 8.72401 138.666 8.37273 137.469 8.37273C136.159 8.37273 135.096 8.80945 134.279 9.6829C133.463 10.5374 133.055 11.6672 133.055 13.0723V20.7625H130.776ZM148.69 18.9396C147.285 17.5345 146.583 15.7686 146.583 13.6419C146.583 11.5153 147.285 9.74936 148.69 8.34425C150.095 6.93913 151.861 6.23657 153.988 6.23657C156.115 6.23657 157.881 6.93913 159.286 8.34425C160.691 9.74936 161.393 11.5153 161.393 13.6419C161.393 15.7686 160.691 17.5345 159.286 18.9396C157.881 20.3447 156.115 21.0473 153.988 21.0473C151.861 21.0473 150.095 20.3447 148.69 18.9396ZM150.314 9.8538C149.345 10.8412 148.861 12.1039 148.861 13.6419C148.861 15.18 149.345 16.4427 150.314 17.43C151.282 18.4174 152.507 18.9111 153.988 18.9111C155.469 18.9111 156.694 18.4174 157.662 17.43C158.631 16.4427 159.115 15.18 159.115 13.6419C159.115 12.1039 158.631 10.8412 157.662 9.8538C156.694 8.86642 155.469 8.37273 153.988 8.37273C152.507 8.37273 151.282 8.86642 150.314 9.8538ZM164.515 20.7625V6.52139H166.794V8.65755H166.822C167.069 8.22082 167.42 7.82207 167.876 7.4613C168.92 6.64481 170.126 6.23657 171.493 6.23657C172.917 6.23657 174.104 6.71127 175.054 7.66067C175.471 8.07841 175.804 8.55311 176.051 9.08478H176.193C176.478 8.59109 176.876 8.11639 177.389 7.66067C178.49 6.71127 179.848 6.23657 181.462 6.23657C183 6.23657 184.263 6.78722 185.25 7.88853C186.238 8.98984 186.731 10.4804 186.731 12.3602V20.7625H184.453V12.5026C184.453 11.1735 184.139 10.1576 183.513 9.45505C182.905 8.7335 182.079 8.37273 181.035 8.37273C179.896 8.37273 178.899 8.80945 178.044 9.6829C177.19 10.5564 176.763 11.5912 176.763 12.7875V20.7625H174.484V12.5026C174.484 11.1735 174.171 10.1576 173.544 9.45505C172.936 8.7335 172.11 8.37273 171.066 8.37273C169.927 8.37273 168.93 8.80945 168.076 9.6829C167.221 10.5564 166.794 11.5912 166.794 12.7875V20.7625H164.515ZM191.831 18.9396C190.426 17.5345 189.723 15.7686 189.723 13.6419C189.723 11.5153 190.426 9.74936 191.831 8.34425C193.236 6.93913 195.002 6.23657 197.128 6.23657C199.255 6.23657 201.021 6.93913 202.426 8.34425C203.831 9.74936 204.534 11.5153 204.534 13.6419C204.534 15.7686 203.831 17.5345 202.426 18.9396C201.021 20.3447 199.255 21.0473 197.128 21.0473C195.002 21.0473 193.236 20.3447 191.831 18.9396ZM193.454 9.8538C192.486 10.8412 192.002 12.1039 192.002 13.6419C192.002 15.18 192.486 16.4427 193.454 17.43C194.423 18.4174 195.647 18.9111 197.128 18.9111C198.609 18.9111 199.834 18.4174 200.803 17.43C201.771 16.4427 202.255 15.18 202.255 13.6419C202.255 12.1039 201.771 10.8412 200.803 9.8538C199.834 8.86642 198.609 8.37273 197.128 8.37273C195.647 8.37273 194.423 8.86642 193.454 9.8538ZM207.656 14.9236V6.52139H209.934V14.7812C209.934 16.1483 210.276 17.1832 210.96 17.8858C211.643 18.5693 212.583 18.9111 213.779 18.9111C215.089 18.9111 216.153 18.4839 216.969 17.6294C217.786 16.756 218.194 15.6167 218.194 14.2116V6.52139H220.473V20.7625H218.194V18.6263H218.166C217.862 19.101 217.482 19.5092 217.026 19.851C216.001 20.6485 214.776 21.0473 213.352 21.0473C211.624 21.0473 210.238 20.5061 209.194 19.4238C208.168 18.3225 207.656 16.8224 207.656 14.9236ZM223.459 16.3477H225.88C226.089 16.8604 226.364 17.2876 226.706 17.6294C227.56 18.4839 228.662 18.9111 230.01 18.9111C231.225 18.9111 232.117 18.7117 232.687 18.313C233.276 17.9142 233.57 17.4016 233.57 16.775C233.57 16.4332 233.447 16.1389 233.2 15.892C232.972 15.6452 232.592 15.4268 232.06 15.2369C231.529 15.047 231.054 14.9046 230.636 14.8097C230.238 14.6958 229.649 14.5628 228.87 14.4109C225.737 13.7653 224.171 12.3697 224.171 10.2241C224.171 9.10377 224.646 8.16386 225.595 7.40434C226.544 6.62582 227.874 6.23657 229.582 6.23657C231.709 6.23657 233.39 6.94862 234.624 8.37273C235.117 9.01832 235.478 9.73038 235.706 10.5089H233.285C233.114 10.1291 232.867 9.77785 232.545 9.45505C231.823 8.7335 230.836 8.37273 229.582 8.37273C228.576 8.37273 227.798 8.56261 227.247 8.94237C226.715 9.32213 226.449 9.74936 226.449 10.2241C226.449 10.5659 226.563 10.8602 226.791 11.107C227.038 11.3539 227.427 11.5722 227.959 11.7621C228.491 11.952 228.956 12.1039 229.355 12.2178C229.772 12.3128 230.37 12.4362 231.149 12.5881C234.282 13.2337 235.848 14.6293 235.848 16.775C235.848 17.9902 235.336 19.0061 234.31 19.8225C233.285 20.639 231.852 21.0473 230.01 21.0473C227.693 21.0473 225.908 20.2688 224.655 18.7117C224.123 18.0282 223.725 17.2402 223.459 16.3477ZM248.154 18.9396C246.787 17.5345 246.103 15.7686 246.103 13.6419C246.103 11.5153 246.787 9.74936 248.154 8.34425C249.521 6.93913 251.211 6.23657 253.224 6.23657C255.559 6.23657 257.411 7.07204 258.778 8.74299C259.366 9.48353 259.794 10.3095 260.059 11.2209H257.781C257.572 10.7083 257.259 10.2336 256.841 9.79683C255.93 8.84743 254.724 8.37273 253.224 8.37273C251.838 8.37273 250.679 8.86642 249.749 9.8538C248.837 10.8412 248.382 12.1039 248.382 13.6419C248.382 15.18 248.856 16.4427 249.806 17.43C250.755 18.4174 251.895 18.9111 253.224 18.9111C254.781 18.9111 256.024 18.3889 256.955 17.3446C257.373 16.9079 257.695 16.3857 257.923 15.7781H260.202C259.955 16.7465 259.518 17.6294 258.892 18.4269C257.449 20.1738 255.559 21.0473 253.224 21.0473C251.211 21.0473 249.521 20.3447 248.154 18.9396ZM263.062 20.7625V0.824964H265.341V18.6263H268.616V20.7625H263.062ZM272.159 18.9396C270.754 17.5345 270.052 15.7686 270.052 13.6419C270.052 11.5153 270.754 9.74936 272.159 8.34425C273.564 6.93913 275.33 6.23657 277.457 6.23657C279.584 6.23657 281.349 6.93913 282.755 8.34425C284.16 9.74936 284.862 11.5153 284.862 13.6419C284.862 15.7686 284.16 17.5345 282.755 18.9396C281.349 20.3447 279.584 21.0473 277.457 21.0473C275.33 21.0473 273.564 20.3447 272.159 18.9396ZM273.783 9.8538C272.814 10.8412 272.33 12.1039 272.33 13.6419C272.33 15.18 272.814 16.4427 273.783 17.43C274.751 18.4174 275.976 18.9111 277.457 18.9111C278.938 18.9111 280.163 18.4174 281.131 17.43C282.099 16.4427 282.584 15.18 282.584 13.6419C282.584 12.1039 282.099 10.8412 281.131 9.8538C280.163 8.86642 278.938 8.37273 277.457 8.37273C275.976 8.37273 274.751 8.86642 273.783 9.8538ZM286.702 8.65755V6.52139H288.554V3.38836H290.832V6.52139H295.389V8.65755H290.832V18.6263H295.532V20.7625H288.554V8.65755H286.702ZM298.387 20.7625V0.824964H300.665V8.65755H300.694C300.979 8.20183 301.349 7.80308 301.805 7.4613C302.849 6.64481 304.083 6.23657 305.507 6.23657C307.235 6.23657 308.612 6.78722 309.637 7.88853C310.682 8.97085 311.204 10.4614 311.204 12.3602V20.7625H308.925V12.5026C308.925 11.1355 308.583 10.1101 307.9 9.42657C307.216 8.72401 306.276 8.37273 305.08 8.37273C303.77 8.37273 302.707 8.80945 301.89 9.6829C301.074 10.5374 300.665 11.6672 300.665 13.0723V20.7625H298.387ZM314.937 3.35987C314.633 3.05606 314.481 2.6858 314.481 2.24907C314.481 1.81234 314.633 1.44208 314.937 1.13827C315.241 0.834459 315.611 0.682554 316.048 0.682554C316.485 0.682554 316.855 0.834459 317.159 1.13827C317.463 1.44208 317.614 1.81234 317.614 2.24907C317.614 2.6858 317.463 3.05606 317.159 3.35987C316.855 3.66368 316.485 3.81559 316.048 3.81559C315.611 3.81559 315.241 3.66368 314.937 3.35987ZM314.909 20.7625V6.52139H317.187V20.7625H314.909ZM321.167 20.7625V6.52139H323.445V8.65755H323.474C323.759 8.20183 324.129 7.80308 324.585 7.4613C325.629 6.64481 326.863 6.23657 328.287 6.23657C330.015 6.23657 331.392 6.78722 332.417 7.88853C333.462 8.97085 333.984 10.4614 333.984 12.3602V20.7625H331.705V12.5026C331.705 11.1355 331.364 10.1101 330.68 9.42657C329.996 8.72401 329.056 8.37273 327.86 8.37273C326.55 8.37273 325.487 8.80945 324.67 9.6829C323.854 10.5374 323.445 11.6672 323.445 13.0723V20.7625H321.167ZM338.967 18.9396C337.638 17.5155 336.973 15.7496 336.973 13.6419C336.973 11.5342 337.638 9.77785 338.967 8.37273C340.296 6.94862 341.91 6.23657 343.809 6.23657C345.005 6.23657 346.021 6.46442 346.857 6.92014C347.692 7.37585 348.29 7.86005 348.651 8.37273L348.907 8.79996H348.936V6.52139H351.214V26.1741H338.967V24.0379H348.936V18.4839H348.907L348.651 18.8826C348.309 19.3953 347.721 19.889 346.885 20.3637C346.05 20.8194 345.024 21.0473 343.809 21.0473C341.91 21.0473 340.296 20.3447 338.967 18.9396ZM340.619 9.8538C339.708 10.8412 339.252 12.1039 339.252 13.6419C339.252 15.18 339.708 16.4427 340.619 17.43C341.55 18.4174 342.708 18.9111 344.094 18.9111C345.48 18.9111 346.629 18.4174 347.54 17.43C348.471 16.4427 348.936 15.18 348.936 13.6419C348.936 12.1039 348.471 10.8412 347.54 9.8538C346.629 8.86642 345.48 8.37273 344.094 8.37273C342.708 8.37273 341.55 8.86642 340.619 9.8538ZM363.195 20.7625V6.52139H365.473V8.65755H365.502C365.749 8.22082 366.1 7.82207 366.556 7.4613C367.6 6.64481 368.806 6.23657 370.173 6.23657C371.597 6.23657 372.784 6.71127 373.733 7.66067C374.151 8.07841 374.483 8.55311 374.73 9.08478H374.872C375.157 8.59109 375.556 8.11639 376.069 7.66067C377.17 6.71127 378.528 6.23657 380.142 6.23657C381.68 6.23657 382.942 6.78722 383.93 7.88853C384.917 8.98984 385.411 10.4804 385.411 12.3602V20.7625H383.132V12.5026C383.132 11.1735 382.819 10.1576 382.192 9.45505C381.585 8.7335 380.759 8.37273 379.714 8.37273C378.575 8.37273 377.578 8.80945 376.724 9.6829C375.869 10.5564 375.442 11.5912 375.442 12.7875V20.7625H373.163V12.5026C373.163 11.1735 372.85 10.1576 372.224 9.45505C371.616 8.7335 370.79 8.37273 369.746 8.37273C368.606 8.37273 367.609 8.80945 366.755 9.6829C365.901 10.5564 365.473 11.5912 365.473 12.7875V20.7625H363.195ZM390.396 18.9396C389.067 17.5155 388.403 15.7496 388.403 13.6419C388.403 11.5342 389.067 9.77785 390.396 8.37273C391.725 6.94862 393.339 6.23657 395.238 6.23657C396.434 6.23657 397.441 6.46442 398.257 6.92014C399.093 7.37585 399.7 7.86954 400.08 8.40121L400.337 8.82844H400.365V6.52139H402.644V20.7625H400.365V18.4839H400.337L400.08 18.8826C399.738 19.3953 399.15 19.889 398.314 20.3637C397.479 20.8194 396.453 21.0473 395.238 21.0473C393.339 21.0473 391.725 20.3447 390.396 18.9396ZM392.048 9.8538C391.137 10.8412 390.681 12.1039 390.681 13.6419C390.681 15.18 391.137 16.4427 392.048 17.43C392.979 18.4174 394.137 18.9111 395.523 18.9111C396.909 18.9111 398.058 18.4174 398.969 17.43C399.9 16.4427 400.365 15.18 400.365 13.6419C400.365 12.1039 399.9 10.8412 398.969 9.8538C398.058 8.86642 396.909 8.37273 395.523 8.37273C394.137 8.37273 392.979 8.86642 392.048 9.8538ZM406.641 20.7625V6.52139H408.92V8.65755H408.948C409.233 8.20183 409.603 7.80308 410.059 7.4613C411.103 6.64481 412.338 6.23657 413.762 6.23657C415.49 6.23657 416.866 6.78722 417.892 7.88853C418.936 8.97085 419.458 10.4614 419.458 12.3602V20.7625H417.179V12.5026C417.179 11.1355 416.838 10.1101 416.154 9.42657C415.471 8.72401 414.531 8.37273 413.334 8.37273C412.024 8.37273 410.961 8.80945 410.144 9.6829C409.328 10.5374 408.92 11.6672 408.92 13.0723V20.7625H406.641ZM424.441 18.9396C423.112 17.5155 422.448 15.7496 422.448 13.6419C422.448 11.5342 423.112 9.77785 424.441 8.37273C425.77 6.94862 427.384 6.23657 429.283 6.23657C430.48 6.23657 431.486 6.46442 432.302 6.92014C433.138 7.37585 433.745 7.86954 434.125 8.40121L434.382 8.82844H434.41V6.52139H436.689V20.7625H434.41V18.4839H434.382L434.125 18.8826C433.783 19.3953 433.195 19.889 432.359 20.3637C431.524 20.8194 430.499 21.0473 429.283 21.0473C427.384 21.0473 425.77 20.3447 424.441 18.9396ZM426.093 9.8538C425.182 10.8412 424.726 12.1039 424.726 13.6419C424.726 15.18 425.182 16.4427 426.093 17.43C427.024 18.4174 428.182 18.9111 429.568 18.9111C430.954 18.9111 432.103 18.4174 433.014 17.43C433.945 16.4427 434.41 15.18 434.41 13.6419C434.41 12.1039 433.945 10.8412 433.014 9.8538C432.103 8.86642 430.954 8.37273 429.568 8.37273C428.182 8.37273 427.024 8.86642 426.093 9.8538ZM441.825 18.9396C440.496 17.5155 439.832 15.7496 439.832 13.6419C439.832 11.5342 440.496 9.77785 441.825 8.37273C443.155 6.94862 444.769 6.23657 446.667 6.23657C447.864 6.23657 448.879 6.46442 449.715 6.92014C450.55 7.37585 451.149 7.86005 451.509 8.37273L451.766 8.79996H451.794V6.52139H454.073V26.1741H441.825V24.0379H451.794V18.4839H451.766L451.509 18.8826C451.168 19.3953 450.579 19.889 449.743 20.3637C448.908 20.8194 447.883 21.0473 446.667 21.0473C444.769 21.0473 443.155 20.3447 441.825 18.9396ZM443.477 9.8538C442.566 10.8412 442.11 12.1039 442.11 13.6419C442.11 15.18 442.566 16.4427 443.477 17.43C444.408 18.4174 445.566 18.9111 446.952 18.9111C448.338 18.9111 449.487 18.4174 450.399 17.43C451.329 16.4427 451.794 15.18 451.794 13.6419C451.794 12.1039 451.329 10.8412 450.399 9.8538C449.487 8.86642 448.338 8.37273 446.952 8.37273C445.566 8.37273 444.408 8.86642 443.477 9.8538ZM459.295 18.9396C457.909 17.5345 457.216 15.7686 457.216 13.6419C457.216 11.5153 457.909 9.74936 459.295 8.34425C460.681 6.93913 462.409 6.23657 464.479 6.23657C466.548 6.23657 468.276 6.92963 469.662 8.31576C471.049 9.70189 471.742 11.4298 471.742 13.4995V14.354H459.494C459.646 15.6831 460.187 16.775 461.118 17.6294C462.048 18.4839 463.169 18.9111 464.479 18.9111C465.884 18.9111 467.09 18.4839 468.096 17.6294C468.552 17.2497 468.912 16.8224 469.178 16.3477H471.457C471.115 17.2402 470.631 18.0282 470.004 18.7117C468.523 20.2688 466.681 21.0473 464.479 21.0473C462.409 21.0473 460.681 20.3447 459.295 18.9396ZM459.551 12.3602H469.321C469.15 11.2399 468.628 10.3 467.754 9.54049C466.881 8.76198 465.789 8.37273 464.479 8.37273C463.169 8.37273 462.067 8.76198 461.175 9.54049C460.282 10.3 459.741 11.2399 459.551 12.3602ZM474.87 20.7625V6.52139H477.149V8.79996H477.177C477.443 8.32526 477.766 7.92651 478.146 7.60371C479.076 6.78722 480.215 6.37898 481.564 6.37898H483.272V8.65755H481.564C480.272 8.65755 479.209 9.07529 478.374 9.91076C477.557 10.7272 477.149 11.7811 477.149 13.0723V20.7625H474.87Z" fill="#0D0D0D"/>
</svg>
