<svg width="303" height="142" viewBox="0 0 303 142" fill="none" xmlns="http://www.w3.org/2000/svg">
<path d="M220.082 122.05V122.684H220.716H267.877C278.242 122.684 286.532 119.993 292.676 114.543C298.813 109.099 301.886 102.153 301.886 93.7537C301.886 85.4445 298.758 78.8222 292.501 73.9548C289.903 71.9133 287.041 70.3926 283.919 69.3946C286.199 68.2382 288.345 66.7426 290.36 64.9112L290.366 64.9056L290.372 64.8998C295.151 60.3196 297.533 54.4412 297.533 47.319C297.533 39.4148 294.759 32.8598 289.208 27.7037C283.75 22.4466 276.619 19.8394 267.877 19.8394H220.716H220.082V20.4739V122.05ZM285.306 80.0091L285.306 80.0092L285.312 80.0148C289.216 83.3614 291.185 87.916 291.185 93.7537C291.185 99.5896 289.217 104.196 285.309 107.64C281.404 110.986 275.628 112.709 267.877 112.709H230.783V74.7985H267.877C275.626 74.7985 281.401 76.5692 285.306 80.0091ZM267.877 64.8231H230.783V29.8148H267.877C273.855 29.8148 278.471 31.4254 281.807 34.5753C285.143 37.7261 286.832 41.9505 286.832 47.319C286.832 52.6874 285.143 56.9118 281.807 60.0626C278.471 63.2125 273.855 64.8231 267.877 64.8231Z" fill="#0D0D0D" stroke="#0D0D0D" stroke-width="1.2689"/>
<path d="M1.36604 122.05V122.684H2.00049H11.4325H12.067V122.05V83.505H42.286L67.4925 122.395L67.68 122.684H68.0249H78.908H80.0816L79.4389 121.702L53.85 82.6084C62.0207 81.1337 68.4246 77.693 73.0063 72.2536C77.8534 66.614 80.268 59.7406 80.268 51.6722C80.268 42.2235 77.0121 34.5491 70.4828 28.7106C64.0471 22.7721 55.2199 19.8394 44.082 19.8394H2.00049H1.36604V20.4739V122.05ZM63.0992 35.5988L63.1046 35.6038L63.1102 35.6086C67.3923 39.3321 69.567 44.6543 69.567 51.6722C69.567 58.6896 67.3923 64.0642 63.1044 67.8861C58.912 71.6123 52.6085 73.5296 44.082 73.5296H12.067V29.8148H44.082C52.6056 29.8148 58.9068 31.7791 63.0992 35.5988Z" fill="#0D0D0D" stroke="#0D0D0D" stroke-width="1.2689"/>
<mask id="path-3-outside-1_1287_12689" maskUnits="userSpaceOnUse" x="93.1943" y="15.5719" width="108" height="111" fill="black">
<rect fill="white" x="93.1943" y="15.5719" width="108" height="111"/>
<path fill-rule="evenodd" clip-rule="evenodd" d="M147.433 17.5719C150.057 17.5719 152.604 17.7294 155.075 18.0445V26.84C155.074 26.8399 155.074 26.8398 155.073 26.8397V115.684C155.074 115.684 155.074 115.684 155.075 115.684V124.48C152.604 124.795 150.057 124.952 147.433 124.952C132.536 124.952 120.105 119.873 110.141 109.716C100.176 99.5582 95.1943 86.7403 95.1943 71.2621C95.1943 55.7838 100.176 42.9659 110.141 32.8083C120.105 22.6507 132.536 17.5719 147.433 17.5719ZM145.641 116.217V26.3075C133.969 26.6899 124.312 30.84 116.67 38.7577C108.641 47.0773 104.626 57.9121 104.626 71.2621C104.626 84.612 108.641 95.4468 116.67 103.766C124.312 111.684 133.969 115.834 145.641 116.217ZM178.196 103.766C174.188 107.92 169.625 111.037 164.507 113.116V122.393C172.106 119.936 178.846 115.711 184.726 109.716C194.69 99.5582 199.673 86.7403 199.673 71.2621C199.673 55.7838 194.69 42.9659 184.726 32.8083C178.846 26.8136 172.106 22.5878 164.507 20.131V29.4077C169.625 31.4876 174.188 34.6043 178.196 38.7577C186.226 47.0773 190.24 57.9121 190.24 71.2621C190.24 84.612 186.226 95.4468 178.196 103.766Z"/>
</mask>
<path fill-rule="evenodd" clip-rule="evenodd" d="M147.433 17.5719C150.057 17.5719 152.604 17.7294 155.075 18.0445V26.84C155.074 26.8399 155.074 26.8398 155.073 26.8397V115.684C155.074 115.684 155.074 115.684 155.075 115.684V124.48C152.604 124.795 150.057 124.952 147.433 124.952C132.536 124.952 120.105 119.873 110.141 109.716C100.176 99.5582 95.1943 86.7403 95.1943 71.2621C95.1943 55.7838 100.176 42.9659 110.141 32.8083C120.105 22.6507 132.536 17.5719 147.433 17.5719ZM145.641 116.217V26.3075C133.969 26.6899 124.312 30.84 116.67 38.7577C108.641 47.0773 104.626 57.9121 104.626 71.2621C104.626 84.612 108.641 95.4468 116.67 103.766C124.312 111.684 133.969 115.834 145.641 116.217ZM178.196 103.766C174.188 107.92 169.625 111.037 164.507 113.116V122.393C172.106 119.936 178.846 115.711 184.726 109.716C194.69 99.5582 199.673 86.7403 199.673 71.2621C199.673 55.7838 194.69 42.9659 184.726 32.8083C178.846 26.8136 172.106 22.5878 164.507 20.131V29.4077C169.625 31.4876 174.188 34.6043 178.196 38.7577C186.226 47.0773 190.24 57.9121 190.24 71.2621C190.24 84.612 186.226 95.4468 178.196 103.766Z" fill="#0D0D0D"/>
<path d="M155.075 18.0445H156.344V16.9271L155.235 16.7858L155.075 18.0445ZM155.075 26.84L154.882 28.0942L156.344 28.3187V26.84H155.075ZM155.073 26.8397L155.266 25.5855L153.804 25.361V26.8397H155.073ZM155.073 115.684H153.804V117.168L155.269 116.938L155.073 115.684ZM155.075 115.684H156.344V114.201L154.879 114.431L155.075 115.684ZM155.075 124.48L155.235 125.738L156.344 125.597V124.48H155.075ZM110.141 109.716L111.046 108.827L111.046 108.827L110.141 109.716ZM110.141 32.8083L111.046 33.6969L111.046 33.6969L110.141 32.8083ZM145.641 116.217L145.599 117.485L146.91 117.528V116.217H145.641ZM145.641 26.3075H146.91V24.9964L145.599 25.0393L145.641 26.3075ZM116.67 38.7577L117.583 39.6389L117.583 39.6389L116.67 38.7577ZM116.67 103.766L115.757 104.648L115.757 104.648L116.67 103.766ZM164.507 113.116L164.029 111.941L163.238 112.262V113.116H164.507ZM178.196 103.766L179.109 104.648L179.109 104.648L178.196 103.766ZM164.507 122.393H163.238V124.137L164.897 123.601L164.507 122.393ZM184.726 109.716L185.632 110.604L185.632 110.604L184.726 109.716ZM184.726 32.8083L185.632 31.9197L185.632 31.9197L184.726 32.8083ZM164.507 20.131L164.897 18.9236L163.238 18.3872V20.131H164.507ZM164.507 29.4077H163.238V30.2617L164.029 30.5833L164.507 29.4077ZM178.196 38.7577L179.109 37.8766L179.109 37.8766L178.196 38.7577ZM155.235 16.7858C152.709 16.4636 150.108 16.303 147.433 16.303V18.8408C150.006 18.8408 152.5 18.9953 154.914 19.3032L155.235 16.7858ZM156.344 26.84V18.0445H153.806V26.84H156.344ZM154.88 28.0939C154.881 28.094 154.882 28.0942 154.882 28.0942C154.883 28.0942 154.883 28.0942 154.882 28.0942L155.268 25.5858C155.267 25.5857 155.266 25.5856 155.266 25.5855C155.265 25.5855 155.265 25.5855 155.266 25.5855L154.88 28.0939ZM153.804 26.8397V115.684H156.342V26.8397H153.804ZM154.879 114.431C154.883 114.43 154.886 114.429 154.885 114.43C154.885 114.43 154.884 114.43 154.883 114.43C154.881 114.43 154.879 114.43 154.877 114.431L155.269 116.938C155.265 116.939 155.262 116.939 155.263 116.939C155.263 116.939 155.264 116.939 155.265 116.939C155.267 116.938 155.269 116.938 155.271 116.938L154.879 114.431ZM156.344 124.48V115.684H153.806V124.48H156.344ZM147.433 126.221C150.108 126.221 152.709 126.061 155.235 125.738L154.914 123.221C152.5 123.529 150.006 123.683 147.433 123.683V126.221ZM109.235 110.604C119.45 121.018 132.213 126.221 147.433 126.221V123.683C132.858 123.683 120.76 118.729 111.046 108.827L109.235 110.604ZM93.9254 71.2621C93.9254 87.0405 99.0163 100.188 109.235 110.604L111.046 108.827C101.336 98.9288 96.4632 86.4401 96.4632 71.2621H93.9254ZM109.235 31.9197C99.0163 42.3365 93.9254 55.4836 93.9254 71.2621H96.4632C96.4632 56.0841 101.336 43.5953 111.046 33.6969L109.235 31.9197ZM147.433 16.303C132.213 16.303 119.45 21.5064 109.235 31.9197L111.046 33.6969C120.76 23.795 132.858 18.8408 147.433 18.8408V16.303ZM146.91 116.217V26.3075H144.372V116.217H146.91ZM117.583 39.6389C124.981 31.9742 134.318 27.948 145.683 27.5757L145.599 25.0393C133.62 25.4317 123.643 29.7058 115.757 37.8766L117.583 39.6389ZM105.895 71.2621C105.895 58.1861 109.818 47.6853 117.583 39.6389L115.757 37.8766C107.464 46.4693 103.357 57.6381 103.357 71.2621H105.895ZM117.583 102.885C109.818 94.8388 105.895 84.3381 105.895 71.2621H103.357C103.357 84.886 107.464 96.0548 115.757 104.648L117.583 102.885ZM145.683 114.948C134.318 114.576 124.981 110.55 117.583 102.885L115.757 104.648C123.643 112.818 133.62 117.092 145.599 117.485L145.683 114.948ZM164.985 114.292C170.274 112.142 174.984 108.923 179.109 104.648L177.283 102.885C173.392 106.917 168.976 109.931 164.029 111.941L164.985 114.292ZM165.776 122.393V113.116H163.238V122.393H165.776ZM183.82 108.827C178.076 114.683 171.51 118.795 164.117 121.186L164.897 123.601C172.702 121.077 179.616 116.738 185.632 110.604L183.82 108.827ZM198.404 71.2621C198.404 86.4401 193.53 98.9288 183.82 108.827L185.632 110.604C195.851 100.188 200.941 87.0405 200.941 71.2621H198.404ZM183.82 33.6969C193.53 43.5953 198.404 56.0841 198.404 71.2621H200.941C200.941 55.4836 195.851 42.3365 185.632 31.9197L183.82 33.6969ZM164.117 21.3383C171.51 23.7288 178.076 27.8407 183.82 33.6969L185.632 31.9197C179.616 25.7864 172.702 21.4467 164.897 18.9236L164.117 21.3383ZM165.776 29.4077V20.131H163.238V29.4077H165.776ZM179.109 37.8766C174.984 33.6015 170.274 30.3817 164.985 28.2322L164.029 30.5833C168.976 32.5935 173.392 35.607 177.283 39.6389L179.109 37.8766ZM191.509 71.2621C191.509 57.6381 187.402 46.4693 179.109 37.8766L177.283 39.6389C185.049 47.6853 188.972 58.1861 188.972 71.2621H191.509ZM179.109 104.648C187.402 96.0548 191.509 84.886 191.509 71.2621H188.972C188.972 84.3381 185.049 94.8388 177.283 102.885L179.109 104.648Z" fill="#0D0D0D" mask="url(#path-3-outside-1_1287_12689)"/>
<rect x="133.03" y="55.1055" width="5.07203" height="30.4322" rx="2.53601" fill="#0D0D0D"/>
</svg>
