<svg width="594" height="39" viewBox="0 0 594 39" fill="none" xmlns="http://www.w3.org/2000/svg">
<line y1="38.5" x2="594" y2="38.5" stroke="#C6C6C6"/>
<rect x="389.5" y="0.5" width="204" height="27" rx="13.5" fill="#0D0D0D"/>
<g clip-path="url(#clip0_1245_12621)">
<path d="M403.833 6.5V21.5" stroke="white" stroke-width="2" stroke-linecap="round" stroke-linejoin="round"/>
<path d="M406.333 9L403.833 6.5L401.333 9" stroke="white" stroke-width="2" stroke-linecap="round" stroke-linejoin="round"/>
<path d="M414.667 19L412.167 21.5L409.667 19" stroke="white" stroke-width="2" stroke-linecap="round" stroke-linejoin="round"/>
<path d="M412.167 21.5V6.5" stroke="white" stroke-width="2" stroke-linecap="round" stroke-linejoin="round"/>
</g>
<path d="M430.672 11.4929C430.619 11.0223 430.4 10.6577 430.016 10.3991C429.631 10.1373 429.147 10.0064 428.564 10.0064C428.146 10.0064 427.785 10.0727 427.48 10.2053C427.175 10.3345 426.938 10.5135 426.769 10.7422C426.603 10.9676 426.521 11.2244 426.521 11.5128C426.521 11.7547 426.577 11.9635 426.69 12.1392C426.806 12.3149 426.956 12.4624 427.142 12.5817C427.331 12.6977 427.533 12.7955 427.749 12.875C427.964 12.9512 428.171 13.0142 428.37 13.0639L429.364 13.3224C429.689 13.402 430.022 13.5097 430.364 13.6456C430.705 13.7815 431.022 13.9605 431.313 14.1825C431.605 14.4046 431.84 14.6797 432.019 15.0078C432.201 15.3359 432.293 15.7287 432.293 16.1861C432.293 16.7628 432.143 17.2749 431.845 17.7223C431.55 18.1697 431.121 18.5227 430.558 18.7812C429.997 19.0398 429.32 19.169 428.524 19.169C427.762 19.169 427.102 19.0481 426.545 18.8061C425.989 18.5642 425.553 18.2211 425.238 17.777C424.923 17.3295 424.749 16.7992 424.716 16.1861H426.257C426.287 16.554 426.406 16.8606 426.615 17.1058C426.827 17.3478 427.097 17.5284 427.425 17.6477C427.757 17.7637 428.12 17.8217 428.514 17.8217C428.948 17.8217 429.335 17.7538 429.673 17.6179C430.014 17.4787 430.282 17.2865 430.478 17.0412C430.674 16.7926 430.771 16.5026 430.771 16.1712C430.771 15.8696 430.685 15.6226 430.513 15.4304C430.344 15.2382 430.113 15.0791 429.822 14.9531C429.533 14.8272 429.207 14.7161 428.842 14.62L427.639 14.2919C426.824 14.0698 426.178 13.7434 425.7 13.3125C425.226 12.8816 424.989 12.3116 424.989 11.6023C424.989 11.0156 425.148 10.5036 425.467 10.0661C425.785 9.62855 426.216 9.28883 426.759 9.04688C427.303 8.80161 427.916 8.67898 428.599 8.67898C429.288 8.67898 429.896 8.79995 430.423 9.0419C430.954 9.28385 431.371 9.61695 431.676 10.0412C431.981 10.4621 432.14 10.946 432.153 11.4929H430.672ZM437.426 19.1541C436.71 19.1541 436.085 18.9901 435.551 18.6619C435.018 18.3338 434.603 17.8748 434.308 17.2848C434.014 16.6948 433.866 16.0054 433.866 15.2166C433.866 14.4245 434.014 13.7318 434.308 13.1385C434.603 12.5452 435.018 12.0845 435.551 11.7564C436.085 11.4283 436.71 11.2642 437.426 11.2642C438.142 11.2642 438.766 11.4283 439.3 11.7564C439.834 12.0845 440.248 12.5452 440.543 13.1385C440.838 13.7318 440.985 14.4245 440.985 15.2166C440.985 16.0054 440.838 16.6948 440.543 17.2848C440.248 17.8748 439.834 18.3338 439.3 18.6619C438.766 18.9901 438.142 19.1541 437.426 19.1541ZM437.431 17.9062C437.895 17.9062 438.279 17.7836 438.584 17.5384C438.889 17.2931 439.114 16.9666 439.26 16.5589C439.409 16.1513 439.484 15.7022 439.484 15.2116C439.484 14.7244 439.409 14.277 439.26 13.8693C439.114 13.4583 438.889 13.1286 438.584 12.88C438.279 12.6314 437.895 12.5071 437.431 12.5071C436.963 12.5071 436.576 12.6314 436.267 12.88C435.962 13.1286 435.735 13.4583 435.586 13.8693C435.44 14.277 435.367 14.7244 435.367 15.2116C435.367 15.7022 435.44 16.1513 435.586 16.5589C435.735 16.9666 435.962 17.2931 436.267 17.5384C436.576 17.7836 436.963 17.9062 437.431 17.9062ZM442.845 19V11.3636H444.281V12.5767H444.361C444.5 12.1657 444.745 11.8426 445.097 11.6072C445.451 11.3686 445.852 11.2493 446.3 11.2493C446.393 11.2493 446.502 11.2526 446.628 11.2592C446.757 11.2659 446.858 11.2741 446.931 11.2841V12.706C446.872 12.6894 446.766 12.6712 446.613 12.6513C446.461 12.6281 446.308 12.6165 446.156 12.6165C445.804 12.6165 445.491 12.6911 445.216 12.8402C444.944 12.986 444.729 13.1899 444.57 13.4517C444.411 13.7102 444.331 14.0052 444.331 14.3366V19H442.845ZM452.433 11.3636V12.5568H448.262V11.3636H452.433ZM449.381 9.53409H450.867V16.7578C450.867 17.0462 450.91 17.2633 450.997 17.4091C451.083 17.5516 451.194 17.6494 451.33 17.7024C451.469 17.7521 451.62 17.777 451.782 17.777C451.901 17.777 452.006 17.7687 452.095 17.7521C452.185 17.7356 452.254 17.7223 452.304 17.7124L452.573 18.9403C452.486 18.9735 452.364 19.0066 452.205 19.0398C452.046 19.0762 451.847 19.0961 451.608 19.0994C451.217 19.1061 450.852 19.0365 450.514 18.8906C450.176 18.7448 449.903 18.5194 449.694 18.2145C449.485 17.9096 449.381 17.5268 449.381 17.0661V9.53409ZM457.487 19.1541C456.735 19.1541 456.087 18.9934 455.543 18.6719C455.003 18.3471 454.585 17.8913 454.29 17.3047C453.999 16.7147 453.853 16.0237 453.853 15.2315C453.853 14.4493 453.999 13.7599 454.29 13.1634C454.585 12.5668 454.996 12.1011 455.523 11.7663C456.053 11.4316 456.673 11.2642 457.383 11.2642C457.813 11.2642 458.231 11.3355 458.635 11.478C459.04 11.6205 459.403 11.8442 459.724 12.1491C460.046 12.4541 460.299 12.8501 460.485 13.3374C460.67 13.8213 460.763 14.4096 460.763 15.1023V15.6293H454.693V14.5156H459.307C459.307 14.1245 459.227 13.7782 459.068 13.4766C458.909 13.1716 458.685 12.9313 458.397 12.7557C458.112 12.58 457.777 12.4922 457.393 12.4922C456.975 12.4922 456.61 12.5949 456.299 12.8004C455.991 13.0026 455.752 13.2678 455.583 13.5959C455.417 13.9207 455.334 14.2737 455.334 14.6548V15.5249C455.334 16.0353 455.424 16.4695 455.603 16.8274C455.785 17.1854 456.039 17.4588 456.363 17.6477C456.688 17.8333 457.068 17.9261 457.502 17.9261C457.784 17.9261 458.04 17.8864 458.272 17.8068C458.504 17.724 458.705 17.6013 458.874 17.4389C459.043 17.2765 459.172 17.076 459.262 16.8374L460.669 17.0909C460.556 17.5052 460.354 17.8681 460.062 18.1797C459.774 18.4879 459.411 18.7282 458.973 18.9006C458.539 19.0696 458.044 19.1541 457.487 19.1541ZM465.471 19.1491C464.855 19.1491 464.305 18.9917 463.821 18.6768C463.34 18.3587 462.962 17.9062 462.687 17.3196C462.415 16.7296 462.279 16.022 462.279 15.1967C462.279 14.3714 462.417 13.6655 462.692 13.0788C462.971 12.4922 463.352 12.0431 463.836 11.7315C464.319 11.42 464.868 11.2642 465.481 11.2642C465.955 11.2642 466.336 11.3438 466.625 11.5028C466.916 11.6586 467.142 11.8409 467.301 12.0497C467.463 12.2585 467.589 12.4425 467.679 12.6016H467.768V8.81818H469.255V19H467.803V17.8118H467.679C467.589 17.9742 467.46 18.1598 467.291 18.3686C467.125 18.5774 466.896 18.7597 466.605 18.9155C466.313 19.0713 465.935 19.1491 465.471 19.1491ZM465.799 17.8814C466.227 17.8814 466.588 17.7687 466.883 17.5433C467.181 17.3146 467.407 16.9981 467.559 16.5938C467.715 16.1894 467.793 15.7187 467.793 15.1818C467.793 14.6515 467.717 14.1875 467.564 13.7898C467.412 13.392 467.188 13.0821 466.893 12.8601C466.598 12.638 466.234 12.527 465.799 12.527C465.352 12.527 464.979 12.643 464.681 12.875C464.382 13.107 464.157 13.4235 464.005 13.8246C463.855 14.2256 463.781 14.678 463.781 15.1818C463.781 15.6922 463.857 16.1513 464.01 16.5589C464.162 16.9666 464.387 17.2898 464.686 17.5284C464.987 17.7637 465.359 17.8814 465.799 17.8814ZM475.601 19V8.81818H477.087V12.6016H477.177C477.263 12.4425 477.387 12.2585 477.55 12.0497C477.712 11.8409 477.937 11.6586 478.226 11.5028C478.514 11.3438 478.895 11.2642 479.369 11.2642C479.986 11.2642 480.536 11.42 481.02 11.7315C481.504 12.0431 481.883 12.4922 482.158 13.0788C482.437 13.6655 482.576 14.3714 482.576 15.1967C482.576 16.022 482.438 16.7296 482.163 17.3196C481.888 17.9062 481.51 18.3587 481.03 18.6768C480.549 18.9917 480 19.1491 479.384 19.1491C478.92 19.1491 478.541 19.0713 478.246 18.9155C477.954 18.7597 477.725 18.5774 477.559 18.3686C477.394 18.1598 477.266 17.9742 477.177 17.8118H477.052V19H475.601ZM477.057 15.1818C477.057 15.7187 477.135 16.1894 477.291 16.5938C477.447 16.9981 477.672 17.3146 477.967 17.5433C478.262 17.7687 478.623 17.8814 479.051 17.8814C479.495 17.8814 479.866 17.7637 480.165 17.5284C480.463 17.2898 480.688 16.9666 480.841 16.5589C480.996 16.1513 481.074 15.6922 481.074 15.1818C481.074 14.678 480.998 14.2256 480.846 13.8246C480.697 13.4235 480.471 13.107 480.17 12.875C479.871 12.643 479.498 12.527 479.051 12.527C478.62 12.527 478.255 12.638 477.957 12.8601C477.662 13.0821 477.438 13.392 477.286 13.7898C477.134 14.1875 477.057 14.6515 477.057 15.1818ZM485.125 21.8636C484.903 21.8636 484.701 21.8454 484.518 21.8089C484.336 21.7758 484.2 21.7393 484.111 21.6996L484.469 20.4815C484.74 20.5545 484.982 20.5859 485.194 20.576C485.407 20.5661 485.594 20.4865 485.756 20.3374C485.922 20.1882 486.068 19.9446 486.194 19.6065L486.378 19.0994L483.584 11.3636H485.175L487.109 17.2898H487.188L489.122 11.3636H490.718L487.571 20.0192C487.425 20.4169 487.239 20.7533 487.014 21.0284C486.789 21.3068 486.52 21.5156 486.209 21.6548C485.897 21.794 485.536 21.8636 485.125 21.8636ZM496.22 19V11.3636H497.647V12.6065H497.741C497.9 12.1856 498.161 11.8575 498.522 11.6222C498.883 11.3835 499.316 11.2642 499.819 11.2642C500.33 11.2642 500.757 11.3835 501.102 11.6222C501.45 11.8608 501.707 12.1889 501.873 12.6065H501.952C502.135 12.1989 502.425 11.8741 502.822 11.6321C503.22 11.3868 503.694 11.2642 504.244 11.2642C504.937 11.2642 505.502 11.4813 505.939 11.9155C506.38 12.3497 506.601 13.0043 506.601 13.8793V19H505.114V14.0185C505.114 13.5014 504.973 13.1269 504.692 12.8949C504.41 12.6629 504.073 12.5469 503.682 12.5469C503.198 12.5469 502.822 12.696 502.554 12.9943C502.285 13.2893 502.151 13.6688 502.151 14.1328V19H500.67V13.924C500.67 13.5097 500.54 13.1766 500.282 12.9247C500.023 12.6728 499.687 12.5469 499.273 12.5469C498.991 12.5469 498.731 12.6214 498.492 12.7706C498.257 12.9164 498.066 13.1203 497.92 13.3821C497.778 13.6439 497.706 13.9472 497.706 14.2919V19H496.22ZM512.01 19.1541C511.294 19.1541 510.669 18.9901 510.135 18.6619C509.602 18.3338 509.187 17.8748 508.892 17.2848C508.597 16.6948 508.45 16.0054 508.45 15.2166C508.45 14.4245 508.597 13.7318 508.892 13.1385C509.187 12.5452 509.602 12.0845 510.135 11.7564C510.669 11.4283 511.294 11.2642 512.01 11.2642C512.726 11.2642 513.35 11.4283 513.884 11.7564C514.418 12.0845 514.832 12.5452 515.127 13.1385C515.422 13.7318 515.569 14.4245 515.569 15.2166C515.569 16.0054 515.422 16.6948 515.127 17.2848C514.832 17.8748 514.418 18.3338 513.884 18.6619C513.35 18.9901 512.726 19.1541 512.01 19.1541ZM512.015 17.9062C512.479 17.9062 512.863 17.7836 513.168 17.5384C513.473 17.2931 513.698 16.9666 513.844 16.5589C513.993 16.1513 514.068 15.7022 514.068 15.2116C514.068 14.7244 513.993 14.277 513.844 13.8693C513.698 13.4583 513.473 13.1286 513.168 12.88C512.863 12.6314 512.479 12.5071 512.015 12.5071C511.547 12.5071 511.16 12.6314 510.851 12.88C510.546 13.1286 510.319 13.4583 510.17 13.8693C510.024 14.277 509.951 14.7244 509.951 15.2116C509.951 15.7022 510.024 16.1513 510.17 16.5589C510.319 16.9666 510.546 17.2931 510.851 17.5384C511.16 17.7836 511.547 17.9062 512.015 17.9062ZM517.429 19V11.3636H518.865V12.5767H518.945C519.084 12.1657 519.329 11.8426 519.681 11.6072C520.035 11.3686 520.436 11.2493 520.884 11.2493C520.977 11.2493 521.086 11.2526 521.212 11.2592C521.341 11.2659 521.442 11.2741 521.515 11.2841V12.706C521.456 12.6894 521.35 12.6712 521.197 12.6513C521.045 12.6281 520.892 12.6165 520.74 12.6165C520.388 12.6165 520.075 12.6911 519.8 12.8402C519.528 12.986 519.313 13.1899 519.154 13.4517C518.995 13.7102 518.915 14.0052 518.915 14.3366V19H517.429ZM526.019 19.1541C525.267 19.1541 524.619 18.9934 524.075 18.6719C523.535 18.3471 523.118 17.8913 522.823 17.3047C522.531 16.7147 522.385 16.0237 522.385 15.2315C522.385 14.4493 522.531 13.7599 522.823 13.1634C523.118 12.5668 523.529 12.1011 524.056 11.7663C524.586 11.4316 525.206 11.2642 525.915 11.2642C526.346 11.2642 526.763 11.3355 527.168 11.478C527.572 11.6205 527.935 11.8442 528.257 12.1491C528.578 12.4541 528.832 12.8501 529.017 13.3374C529.203 13.8213 529.296 14.4096 529.296 15.1023V15.6293H523.225V14.5156H527.839C527.839 14.1245 527.759 13.7782 527.6 13.4766C527.441 13.1716 527.218 12.9313 526.929 12.7557C526.644 12.58 526.309 12.4922 525.925 12.4922C525.507 12.4922 525.143 12.5949 524.831 12.8004C524.523 13.0026 524.284 13.2678 524.115 13.5959C523.95 13.9207 523.867 14.2737 523.867 14.6548V15.5249C523.867 16.0353 523.956 16.4695 524.135 16.8274C524.317 17.1854 524.571 17.4588 524.896 17.6477C525.221 17.8333 525.6 17.9261 526.034 17.9261C526.316 17.9261 526.573 17.8864 526.805 17.8068C527.037 17.724 527.237 17.6013 527.406 17.4389C527.575 17.2765 527.705 17.076 527.794 16.8374L529.201 17.0909C529.089 17.5052 528.886 17.8681 528.595 18.1797C528.306 18.4879 527.943 18.7282 527.506 18.9006C527.072 19.0696 526.576 19.1541 526.019 19.1541ZM539.887 15.8331V11.3636H541.379V19H539.917V17.6776H539.838C539.662 18.0852 539.38 18.425 538.993 18.6967C538.608 18.9652 538.129 19.0994 537.556 19.0994C537.065 19.0994 536.631 18.9917 536.253 18.7763C535.879 18.5575 535.584 18.2344 535.368 17.8068C535.156 17.3793 535.05 16.8506 535.05 16.2209V11.3636H536.537V16.0419C536.537 16.5623 536.681 16.9766 536.969 17.2848C537.257 17.593 537.632 17.7472 538.093 17.7472C538.371 17.7472 538.648 17.6776 538.923 17.5384C539.201 17.3991 539.432 17.1887 539.614 16.907C539.8 16.6252 539.891 16.2673 539.887 15.8331ZM549.299 13.228L547.951 13.4666C547.895 13.2943 547.805 13.1302 547.683 12.9744C547.563 12.8187 547.401 12.6911 547.196 12.5916C546.99 12.4922 546.733 12.4425 546.425 12.4425C546.004 12.4425 545.653 12.5369 545.371 12.7259C545.089 12.9115 544.948 13.1518 544.948 13.4467C544.948 13.7019 545.043 13.9074 545.232 14.0632C545.421 14.219 545.726 14.3466 546.147 14.446L547.36 14.7244C548.062 14.8868 548.586 15.1371 548.931 15.4751C549.275 15.8132 549.448 16.2524 549.448 16.7926C549.448 17.25 549.315 17.6577 549.05 18.0156C548.788 18.3703 548.422 18.6487 547.951 18.8509C547.484 19.053 546.942 19.1541 546.326 19.1541C545.47 19.1541 544.773 18.9718 544.232 18.6072C543.692 18.2393 543.361 17.7173 543.238 17.0412L544.675 16.8224C544.764 17.197 544.948 17.4804 545.227 17.6726C545.505 17.8615 545.868 17.956 546.316 17.956C546.803 17.956 547.192 17.8549 547.484 17.6527C547.776 17.4472 547.921 17.197 547.921 16.902C547.921 16.6634 547.832 16.4628 547.653 16.3004C547.477 16.138 547.207 16.0154 546.843 15.9325L545.55 15.6491C544.837 15.4867 544.31 15.2282 543.969 14.8736C543.631 14.5189 543.462 14.0698 543.462 13.5263C543.462 13.0755 543.588 12.6811 543.84 12.343C544.092 12.005 544.44 11.7415 544.884 11.5526C545.328 11.3603 545.837 11.2642 546.41 11.2642C547.235 11.2642 547.885 11.4432 548.359 11.8011C548.833 12.1558 549.146 12.6314 549.299 13.228ZM554.573 19.1541C553.821 19.1541 553.173 18.9934 552.629 18.6719C552.089 18.3471 551.672 17.8913 551.377 17.3047C551.085 16.7147 550.939 16.0237 550.939 15.2315C550.939 14.4493 551.085 13.7599 551.377 13.1634C551.672 12.5668 552.083 12.1011 552.61 11.7663C553.14 11.4316 553.76 11.2642 554.469 11.2642C554.9 11.2642 555.317 11.3355 555.722 11.478C556.126 11.6205 556.489 11.8442 556.811 12.1491C557.132 12.4541 557.386 12.8501 557.571 13.3374C557.757 13.8213 557.85 14.4096 557.85 15.1023V15.6293H551.779V14.5156H556.393C556.393 14.1245 556.313 13.7782 556.154 13.4766C555.995 13.1716 555.771 12.9313 555.483 12.7557C555.198 12.58 554.863 12.4922 554.479 12.4922C554.061 12.4922 553.697 12.5949 553.385 12.8004C553.077 13.0026 552.838 13.2678 552.669 13.5959C552.503 13.9207 552.421 14.2737 552.421 14.6548V15.5249C552.421 16.0353 552.51 16.4695 552.689 16.8274C552.871 17.1854 553.125 17.4588 553.45 17.6477C553.775 17.8333 554.154 17.9261 554.588 17.9261C554.87 17.9261 555.127 17.8864 555.359 17.8068C555.591 17.724 555.791 17.6013 555.96 17.4389C556.129 17.2765 556.259 17.076 556.348 16.8374L557.755 17.0909C557.642 17.5052 557.44 17.8681 557.149 18.1797C556.86 18.4879 556.497 18.7282 556.06 18.9006C555.626 19.0696 555.13 19.1541 554.573 19.1541ZM562.558 19.1491C561.941 19.1491 561.391 18.9917 560.907 18.6768C560.426 18.3587 560.049 17.9062 559.773 17.3196C559.502 16.7296 559.366 16.022 559.366 15.1967C559.366 14.3714 559.503 13.6655 559.778 13.0788C560.057 12.4922 560.438 12.0431 560.922 11.7315C561.406 11.42 561.954 11.2642 562.568 11.2642C563.041 11.2642 563.423 11.3438 563.711 11.5028C564.003 11.6586 564.228 11.8409 564.387 12.0497C564.55 12.2585 564.675 12.4425 564.765 12.6016H564.854V8.81818H566.341V19H564.889V17.8118H564.765C564.675 17.9742 564.546 18.1598 564.377 18.3686C564.211 18.5774 563.983 18.7597 563.691 18.9155C563.399 19.0713 563.022 19.1491 562.558 19.1491ZM562.886 17.8814C563.313 17.8814 563.675 17.7687 563.97 17.5433C564.268 17.3146 564.493 16.9981 564.646 16.5938C564.801 16.1894 564.879 15.7187 564.879 15.1818C564.879 14.6515 564.803 14.1875 564.651 13.7898C564.498 13.392 564.274 13.0821 563.979 12.8601C563.684 12.638 563.32 12.527 562.886 12.527C562.438 12.527 562.065 12.643 561.767 12.875C561.469 13.107 561.243 13.4235 561.091 13.8246C560.942 14.2256 560.867 14.678 560.867 15.1818C560.867 15.6922 560.943 16.1513 561.096 16.5589C561.248 16.9666 561.474 17.2898 561.772 17.5284C562.074 17.7637 562.445 17.8814 562.886 17.8814Z" fill="white"/>
<g clip-path="url(#clip1_1245_12621)">
<path d="M573 12.5L578 17.5L583 12.5" stroke="white" stroke-width="1.5" stroke-linecap="round" stroke-linejoin="round"/>
</g>
<rect x="389.5" y="0.5" width="204" height="27" rx="13.5" stroke="#0D0D0D"/>
<rect x="0.5" y="0.5" width="57" height="27" rx="13.5" fill="white"/>
<g clip-path="url(#clip2_1245_12621)">
<path d="M14.9167 8.58333L16.1667 9.83333L18.2501 7.75" stroke="#0D0D0D" stroke-width="2" stroke-linecap="round" stroke-linejoin="round"/>
<path d="M14.9167 13.5833L16.1667 14.8333L18.2501 12.75" stroke="#0D0D0D" stroke-width="2" stroke-linecap="round" stroke-linejoin="round"/>
<path d="M14.9167 18.5833L16.1667 19.8333L18.2501 17.75" stroke="#0D0D0D" stroke-width="2" stroke-linecap="round" stroke-linejoin="round"/>
<path d="M21.1667 9H28.6667" stroke="#0D0D0D" stroke-width="2" stroke-linecap="round" stroke-linejoin="round"/>
<path d="M21.1667 14H28.6667" stroke="#0D0D0D" stroke-width="2" stroke-linecap="round" stroke-linejoin="round"/>
<path d="M21.1667 19H28.6667" stroke="#0D0D0D" stroke-width="2" stroke-linecap="round" stroke-linejoin="round"/>
</g>
<g clip-path="url(#clip3_1245_12621)">
<path d="M37 11.5L42 16.5L47 11.5" stroke="#0D0D0D" stroke-width="1.5" stroke-linecap="round" stroke-linejoin="round"/>
</g>
<rect x="0.5" y="0.5" width="57" height="27" rx="13.5" stroke="#505050"/>
<defs>
<clipPath id="clip0_1245_12621">
<rect width="20" height="20" fill="white" transform="translate(398 4)"/>
</clipPath>
<clipPath id="clip1_1245_12621">
<rect width="20" height="20" fill="white" transform="translate(568 5)"/>
</clipPath>
<clipPath id="clip2_1245_12621">
<rect width="20" height="20" fill="white" transform="translate(12 4)"/>
</clipPath>
<clipPath id="clip3_1245_12621">
<rect width="20" height="20" fill="white" transform="translate(32 4)"/>
</clipPath>
</defs>
</svg>
