<svg width="131" height="45" viewBox="0 0 131 45" fill="none" xmlns="http://www.w3.org/2000/svg">
<path d="M56.8386 30.366L55.7152 31.4894M51.5427 21.2187H53.1475H51.5427ZM65.9859 6.77551V8.38031V6.77551ZM78.8243 21.2187H80.4291H78.8243ZM65.9859 34.0571V35.6619V34.0571ZM55.7152 10.948L56.8386 12.0713L55.7152 10.948ZM76.2566 10.948L75.1333 12.0713L76.2566 10.948ZM75.1333 30.366L76.2566 31.4894L75.1333 30.366Z" stroke="#878787" stroke-width="1.5" stroke-linecap="round" stroke-linejoin="round"/>
<path d="M65.9858 27.6379C69.5311 27.6379 72.405 24.764 72.405 21.2188C72.405 17.6735 69.5311 14.7996 65.9858 14.7996C62.4406 14.7996 59.5667 17.6735 59.5667 21.2188C59.5667 24.764 62.4406 27.6379 65.9858 27.6379Z" stroke="#878787" stroke-width="1.5" stroke-linecap="round" stroke-linejoin="round"/>
<path d="M88.5724 15.2347V12.8712L93.1306 9.32589H95.1565V32.9612H92.9618V11.8582L88.5724 15.2347ZM100.207 26.8835H102.401C102.627 27.6939 103.043 28.4817 103.651 29.2471C104.956 30.8228 106.735 31.6106 108.986 31.6106C110.809 31.6106 112.306 31.0366 113.476 29.8886C114.647 28.7406 115.232 27.2887 115.232 25.5329C115.232 23.7772 114.647 22.3253 113.476 21.1773C112.306 20.0293 110.809 19.4553 108.986 19.4553C107.297 19.4553 105.834 19.9393 104.596 20.9072C104.033 21.2898 103.583 21.7626 103.246 22.3253H101.22L102.233 9.32589H115.907V11.3518H104.09L103.414 19.4215V19.4553C103.82 19.0501 104.281 18.7125 104.799 18.4424C106.014 17.7671 107.41 17.4294 108.986 17.4294C111.417 17.4294 113.431 18.206 115.029 19.7592C116.628 21.3124 117.427 23.2369 117.427 25.5329C117.427 27.8289 116.628 29.7535 115.029 31.3067C113.431 32.8599 111.417 33.6365 108.986 33.6365C105.834 33.6365 103.437 32.511 101.794 30.26C101.051 29.2696 100.522 28.1441 100.207 26.8835ZM121.453 16.5515C120.575 15.7187 120.136 14.717 120.136 13.5465C120.136 12.376 120.575 11.3855 121.453 10.5752C122.33 9.74232 123.355 9.32589 124.525 9.32589C125.696 9.32589 126.72 9.74232 127.598 10.5752C128.476 11.3855 128.915 12.376 128.915 13.5465C128.915 14.717 128.476 15.7187 127.598 16.5515C126.72 17.3619 125.696 17.7671 124.525 17.7671C123.355 17.7671 122.33 17.3619 121.453 16.5515ZM122.736 11.7232C122.24 12.1959 121.993 12.8037 121.993 13.5465C121.993 14.2893 122.24 14.8971 122.736 15.3698C123.231 15.8425 123.827 16.0788 124.525 16.0788C125.223 16.0788 125.82 15.8425 126.315 15.3698C126.81 14.8971 127.058 14.2893 127.058 13.5465C127.058 12.8037 126.81 12.1959 126.315 11.7232C125.82 11.2505 125.223 11.0141 124.525 11.0141C123.827 11.0141 123.231 11.2505 122.736 11.7232Z" fill="#878787"/>
<path d="M17.5894 11.5812V10.5612H24.4294V11.5812H21.5494V18.9612H20.4694V11.5812H17.5894ZM25.6076 18.9612V10.5612H26.6876V14.2212H31.1876V10.5612H32.2676V18.9612H31.1876V15.2412H26.6876V18.9612H25.6076ZM34.2257 15.7812V10.5612H35.3057V15.7812C35.3057 16.5172 35.5097 17.1012 35.9177 17.5332C36.3257 17.9652 36.8617 18.1812 37.5257 18.1812C38.1897 18.1812 38.7257 17.9652 39.1337 17.5332C39.5417 17.1012 39.7457 16.5172 39.7457 15.7812V10.5612H40.8257V15.7812C40.8257 16.8212 40.5217 17.6532 39.9137 18.2772C39.3137 18.8932 38.5177 19.2012 37.5257 19.2012C36.5337 19.2012 35.7337 18.8932 35.1257 18.2772C34.5257 17.6532 34.2257 16.8212 34.2257 15.7812ZM1.62568 30.6812H2.76568C2.83768 30.9772 2.96168 31.2292 3.13768 31.4372C3.53768 31.9332 4.11368 32.1812 4.86568 32.1812C5.51368 32.1812 6.01368 32.0252 6.36568 31.7132C6.72568 31.4012 6.90568 30.9972 6.90568 30.5012C6.90568 30.0052 6.72968 29.6012 6.37768 29.2892C6.02568 28.9772 5.54168 28.8212 4.92568 28.8212H3.18568V27.8612L5.99368 25.5932L6.00568 25.5812H2.04568V24.5612H7.50568V25.5812L4.86568 27.7052L4.75768 27.7892L4.74568 27.8012H4.92568C5.80568 27.8012 6.53368 28.0692 7.10968 28.6052C7.69368 29.1332 7.98568 29.7652 7.98568 30.5012C7.98568 31.2452 7.68968 31.8812 7.09768 32.4092C6.51368 32.9372 5.76968 33.2012 4.86568 33.2012C3.66568 33.2012 2.77368 32.7812 2.18968 31.9412C1.91768 31.5572 1.72968 31.1372 1.62568 30.6812ZM10.3264 31.9652C9.5904 31.1412 9.2224 30.0732 9.2224 28.7612C9.2224 27.4492 9.5904 26.3812 10.3264 25.5572C11.0624 24.7332 11.9544 24.3212 13.0024 24.3212C14.0504 24.3212 14.9424 24.7332 15.6784 25.5572C16.4144 26.3812 16.7824 27.4492 16.7824 28.7612C16.7824 30.0732 16.4144 31.1412 15.6784 31.9652C14.9424 32.7892 14.0504 33.2012 13.0024 33.2012C11.9544 33.2012 11.0624 32.7892 10.3264 31.9652ZM11.0584 26.2532C10.5544 26.8532 10.3024 27.6892 10.3024 28.7612C10.3024 29.8332 10.5544 30.6732 11.0584 31.2812C11.5704 31.8812 12.2184 32.1812 13.0024 32.1812C13.7864 32.1812 14.4304 31.8812 14.9344 31.2812C15.4464 30.6732 15.7024 29.8332 15.7024 28.7612C15.7024 27.6892 15.4464 26.8532 14.9344 26.2532C14.4304 25.6452 13.7864 25.3412 13.0024 25.3412C12.2184 25.3412 11.5704 25.6452 11.0584 26.2532ZM21.8485 32.9612V26.9612H22.8085V27.8612H22.8205C22.9405 27.6692 23.0965 27.5012 23.2885 27.3572C23.7285 27.0132 24.2485 26.8412 24.8485 26.8412C25.5765 26.8412 26.1565 27.0732 26.5885 27.5372C27.0285 27.9932 27.2485 28.6212 27.2485 29.4212V32.9612H26.2885V29.4812C26.2885 28.9052 26.1445 28.4732 25.8565 28.1852C25.5685 27.8892 25.1725 27.7412 24.6685 27.7412C24.1165 27.7412 23.6685 27.9252 23.3245 28.2932C22.9805 28.6532 22.8085 29.1292 22.8085 29.7212V32.9612H21.8485ZM29.496 32.1932C28.904 31.6012 28.608 30.8572 28.608 29.9612C28.608 29.0652 28.904 28.3212 29.496 27.7292C30.088 27.1372 30.832 26.8412 31.728 26.8412C32.624 26.8412 33.368 27.1372 33.96 27.7292C34.552 28.3212 34.848 29.0652 34.848 29.9612C34.848 30.8572 34.552 31.6012 33.96 32.1932C33.368 32.7852 32.624 33.0812 31.728 33.0812C30.832 33.0812 30.088 32.7852 29.496 32.1932ZM30.18 28.3652C29.772 28.7812 29.568 29.3132 29.568 29.9612C29.568 30.6092 29.772 31.1412 30.18 31.5572C30.588 31.9732 31.104 32.1812 31.728 32.1812C32.352 32.1812 32.868 31.9732 33.276 31.5572C33.684 31.1412 33.888 30.6092 33.888 29.9612C33.888 29.3132 33.684 28.7812 33.276 28.3652C32.868 27.9492 32.352 27.7412 31.728 27.7412C31.104 27.7412 30.588 27.9492 30.18 28.3652ZM35.6633 26.9612H36.6833L38.0633 32.0612H39.0833L40.4633 26.9612H41.4833L39.8033 32.9612H37.3433L35.6633 26.9612Z" fill="#878787"/>
</svg>
