<svg width="427" height="228" viewBox="0 0 427 228" fill="none" xmlns="http://www.w3.org/2000/svg">
<g clip-path="url(#clip0_1162_24313)">
<g clip-path="url(#clip1_1162_24313)">
<path d="M7.73891 201.35C6.30045 201.35 4.92091 200.804 3.90376 199.831C2.88661 198.858 2.31519 197.538 2.31519 196.162C2.31519 194.787 2.88661 193.467 3.90376 192.494C4.92091 191.521 6.30045 190.975 7.73891 190.975C8.07865 189.461 9.07251 188.131 10.5019 187.277C11.2096 186.854 12.003 186.561 12.8366 186.414C13.6703 186.267 14.528 186.269 15.3607 186.421C16.1933 186.572 16.9847 186.87 17.6897 187.296C18.3946 187.723 18.9992 188.27 19.4691 188.907C19.9389 189.544 20.2648 190.258 20.428 191.009C20.5913 191.759 20.5887 192.531 20.4205 193.28H21.5734C22.6435 193.28 23.6698 193.705 24.4266 194.462C25.1833 195.219 25.6084 196.245 25.6084 197.315C25.6084 198.385 25.1833 199.412 24.4266 200.169C23.6698 200.925 22.6435 201.35 21.5734 201.35H7.73891Z" stroke="#878787" stroke-width="2.30574" stroke-linecap="round" stroke-linejoin="round"/>
</g>
<path d="M6.11027 216.725V215.342L7.97791 213.889H9.08467V223.573H7.83957V215.411L6.11027 216.725ZM10.6108 223.573V222.397L13.7927 220.045C14.6689 219.391 15.2914 218.828 15.6604 218.358C16.0293 217.887 16.2137 217.343 16.2137 216.725C16.2137 216.162 16.02 215.701 15.6327 215.342C15.2545 214.973 14.7565 214.788 14.1386 214.788C13.3454 214.788 12.7551 215.111 12.3678 215.757C12.1833 216.052 12.0588 216.375 11.9942 216.725H10.68C10.763 216.153 10.9428 215.637 11.2195 215.176C11.8743 214.133 12.8473 213.612 14.1386 213.612C15.0978 213.612 15.8909 213.912 16.5181 214.512C17.1452 215.111 17.4588 215.849 17.4588 216.725C17.4588 217.564 17.219 218.302 16.7394 218.939C16.2691 219.566 15.5635 220.211 14.6228 220.875L12.6168 222.3L12.4784 222.383V222.411L12.6029 222.397H17.4588V223.573H10.6108ZM19.0818 216.836C18.7405 216.485 18.5699 216.079 18.5699 215.618C18.5699 215.157 18.7405 214.756 19.0818 214.415C19.4323 214.064 19.8611 213.889 20.3684 213.889C20.8756 213.889 21.2999 214.064 21.6412 214.415C21.9916 214.756 22.1669 215.157 22.1669 215.618C22.1669 216.079 21.9916 216.485 21.6412 216.836C21.2999 217.177 20.8756 217.348 20.3684 217.348C19.8611 217.348 19.4323 217.177 19.0818 216.836ZM19.7735 215.023C19.6167 215.18 19.5383 215.379 19.5383 215.618C19.5383 215.858 19.6167 216.056 19.7735 216.213C19.9303 216.37 20.1286 216.448 20.3684 216.448C20.6082 216.448 20.8065 216.37 20.9633 216.213C21.1201 216.056 21.1984 215.858 21.1984 215.618C21.1984 215.379 21.1201 215.18 20.9633 215.023C20.8065 214.867 20.6082 214.788 20.3684 214.788C20.1286 214.788 19.9303 214.867 19.7735 215.023Z" fill="#0D0D0D"/>
<path d="M7.2631 167.152V165.768L9.13075 164.316H10.2375V174H8.9924V165.838L7.2631 167.152ZM11.7636 174V172.824L14.9455 170.472C15.8217 169.817 16.4443 169.255 16.8132 168.784C17.1821 168.314 17.3666 167.77 17.3666 167.152C17.3666 166.589 17.1729 166.128 16.7855 165.768C16.4074 165.399 15.9093 165.215 15.2914 165.215C14.4982 165.215 13.908 165.538 13.5206 166.183C13.3361 166.479 13.2116 166.801 13.1471 167.152H11.8328C11.9158 166.58 12.0956 166.064 12.3723 165.602C13.0272 164.56 14.0002 164.039 15.2914 164.039C16.2506 164.039 17.0438 164.339 17.6709 164.938C18.2981 165.538 18.6117 166.276 18.6117 167.152C18.6117 167.991 18.3719 168.729 17.8923 169.365C17.4219 169.993 16.7163 170.638 15.7756 171.302L13.7696 172.727L13.6313 172.81V172.838L13.7558 172.824H18.6117V174H11.7636Z" fill="#505050"/>
</g>
<g clip-path="url(#clip2_1162_24313)">
<g clip-path="url(#clip3_1162_24313)">
<path d="M107.739 201.35C106.3 201.35 104.921 200.804 103.904 199.831C102.887 198.858 102.315 197.538 102.315 196.162C102.315 194.787 102.887 193.467 103.904 192.494C104.921 191.521 106.3 190.975 107.739 190.975C108.079 189.461 109.073 188.131 110.502 187.277C111.21 186.854 112.003 186.561 112.837 186.414C113.67 186.267 114.528 186.269 115.361 186.421C116.193 186.572 116.985 186.87 117.69 187.296C118.395 187.723 118.999 188.27 119.469 188.907C119.939 189.544 120.265 190.258 120.428 191.009C120.591 191.759 120.589 192.531 120.42 193.28H121.573C122.644 193.28 123.67 193.705 124.427 194.462C125.183 195.219 125.608 196.245 125.608 197.315C125.608 198.385 125.183 199.412 124.427 200.169C123.67 200.925 122.644 201.35 121.573 201.35H107.739Z" stroke="#878787" stroke-width="2.30574" stroke-linecap="round" stroke-linejoin="round"/>
</g>
<path d="M106.932 216.725V215.342L108.8 213.889H109.906V223.573H108.661V215.411L106.932 216.725ZM111.433 223.573V222.397L114.614 220.045C115.491 219.391 116.113 218.828 116.482 218.358C116.851 217.887 117.036 217.343 117.036 216.725C117.036 216.162 116.842 215.701 116.454 215.342C116.076 214.973 115.578 214.788 114.96 214.788C114.167 214.788 113.577 215.111 113.19 215.757C113.005 216.052 112.881 216.375 112.816 216.725H111.502C111.585 216.153 111.765 215.637 112.041 215.176C112.696 214.133 113.669 213.612 114.96 213.612C115.92 213.612 116.713 213.912 117.34 214.512C117.967 215.111 118.281 215.849 118.281 216.725C118.281 217.564 118.041 218.302 117.561 218.939C117.091 219.566 116.385 220.211 115.445 220.875L113.439 222.3L113.3 222.383V222.411L113.425 222.397H118.281V223.573H111.433ZM119.904 216.836C119.562 216.485 119.392 216.079 119.392 215.618C119.392 215.157 119.562 214.756 119.904 214.415C120.254 214.064 120.683 213.889 121.19 213.889C121.697 213.889 122.122 214.064 122.463 214.415C122.813 214.756 122.989 215.157 122.989 215.618C122.989 216.079 122.813 216.485 122.463 216.836C122.122 217.177 121.697 217.348 121.19 217.348C120.683 217.348 120.254 217.177 119.904 216.836ZM120.595 215.023C120.438 215.18 120.36 215.379 120.36 215.618C120.36 215.858 120.438 216.056 120.595 216.213C120.752 216.37 120.95 216.448 121.19 216.448C121.43 216.448 121.628 216.37 121.785 216.213C121.942 216.056 122.02 215.858 122.02 215.618C122.02 215.379 121.942 215.18 121.785 215.023C121.628 214.867 121.43 214.788 121.19 214.788C120.95 214.788 120.752 214.867 120.595 215.023Z" fill="#0D0D0D"/>
<path d="M106.932 167.152V165.768L108.8 164.316H109.906V174H108.661V165.838L106.932 167.152ZM111.709 171.371H112.954C113.037 171.713 113.18 172.003 113.383 172.243C113.844 172.815 114.508 173.101 115.375 173.101C116.086 173.101 116.653 172.902 117.077 172.506C117.51 172.109 117.727 171.593 117.727 170.956C117.727 170.32 117.51 169.803 117.077 169.407C116.653 169.01 116.086 168.812 115.375 168.812C114.739 168.812 114.19 168.987 113.729 169.338C113.535 169.476 113.369 169.647 113.231 169.85H112.124L112.539 164.316H118.281V165.492H113.577L113.369 168.314V168.328C113.526 168.189 113.701 168.074 113.895 167.982C114.412 167.751 114.951 167.636 115.514 167.636C116.51 167.636 117.335 167.954 117.99 168.591C118.645 169.227 118.972 170.016 118.972 170.956C118.972 171.906 118.636 172.699 117.962 173.336C117.298 173.963 116.436 174.277 115.375 174.277C114.01 174.277 112.991 173.792 112.318 172.824C112.004 172.39 111.801 171.906 111.709 171.371Z" fill="#505050"/>
</g>
<g clip-path="url(#clip4_1162_24313)">
<g clip-path="url(#clip5_1162_24313)">
<path d="M207.408 201.35C205.969 201.35 204.59 200.804 203.572 199.831C202.555 198.858 201.984 197.538 201.984 196.162C201.984 194.787 202.555 193.467 203.572 192.494C204.59 191.521 205.969 190.975 207.408 190.975C207.747 189.461 208.741 188.131 210.171 187.277C210.878 186.854 211.672 186.561 212.505 186.414C213.339 186.267 214.197 186.269 215.029 186.421C215.862 186.572 216.653 186.87 217.358 187.296C218.063 187.723 218.668 188.27 219.138 188.907C219.608 189.544 219.933 190.258 220.097 191.009C220.26 191.759 220.257 192.531 220.089 193.28H221.242C222.312 193.28 223.339 193.705 224.095 194.462C224.852 195.219 225.277 196.245 225.277 197.315C225.277 198.385 224.852 199.412 224.095 200.169C223.339 200.925 222.312 201.35 221.242 201.35H207.408Z" stroke="#878787" stroke-width="2.30574" stroke-linecap="round" stroke-linejoin="round"/>
</g>
<path d="M208.906 216.725V215.342L210.774 213.889H211.881V223.573H210.636V215.411L208.906 216.725ZM213.338 216.725V215.342L215.205 213.889H216.312V223.573H215.067V215.411L213.338 216.725ZM218.419 216.836C218.078 216.485 217.907 216.079 217.907 215.618C217.907 215.157 218.078 214.756 218.419 214.415C218.77 214.064 219.199 213.889 219.706 213.889C220.213 213.889 220.637 214.064 220.979 214.415C221.329 214.756 221.504 215.157 221.504 215.618C221.504 216.079 221.329 216.485 220.979 216.836C220.637 217.177 220.213 217.348 219.706 217.348C219.199 217.348 218.77 217.177 218.419 216.836ZM219.111 215.023C218.954 215.18 218.876 215.379 218.876 215.618C218.876 215.858 218.954 216.056 219.111 216.213C219.268 216.37 219.466 216.448 219.706 216.448C219.946 216.448 220.144 216.37 220.301 216.213C220.458 216.056 220.536 215.858 220.536 215.618C220.536 215.379 220.458 215.18 220.301 215.023C220.144 214.867 219.946 214.788 219.706 214.788C219.466 214.788 219.268 214.867 219.111 215.023Z" fill="#0D0D0D"/>
<path d="M208.906 167.152V165.768L210.774 164.316H211.881V174H210.636V165.838L208.906 167.152ZM213.13 165.492V164.316H219.563V165.492L215.551 174H214.237L218.249 165.506V165.492H213.13Z" fill="#505050"/>
</g>
<g clip-path="url(#clip6_1162_24313)">
<g clip-path="url(#clip7_1162_24313)">
<path d="M307.077 201.35C305.638 201.35 304.259 200.804 303.241 199.831C302.224 198.858 301.653 197.538 301.653 196.162C301.653 194.787 302.224 193.467 303.241 192.494C304.259 191.521 305.638 190.975 307.077 190.975C307.416 189.461 308.41 188.131 309.84 187.277C310.547 186.854 311.341 186.561 312.174 186.414C313.008 186.267 313.866 186.269 314.698 186.421C315.531 186.572 316.322 186.87 317.027 187.296C317.732 187.723 318.337 188.27 318.807 188.907C319.277 189.544 319.602 190.258 319.766 191.009C319.929 191.759 319.926 192.531 319.758 193.28H320.911C321.981 193.28 323.007 193.705 323.764 194.462C324.521 195.219 324.946 196.245 324.946 197.315C324.946 198.385 324.521 199.412 323.764 200.169C323.007 200.925 321.981 201.35 320.911 201.35H307.077Z" stroke="#878787" stroke-width="2.30574" stroke-linecap="round" stroke-linejoin="round"/>
</g>
<path d="M307.63 217.002C307.63 216.052 307.976 215.249 308.668 214.595C309.359 213.94 310.236 213.612 311.296 213.612C312.357 213.612 313.233 213.94 313.925 214.595C314.616 215.249 314.962 216.052 314.962 217.002C314.962 217.454 314.875 217.901 314.699 218.344C314.533 218.786 314.363 219.141 314.188 219.409C314.012 219.676 313.74 220.05 313.371 220.53L311.019 223.573H309.567L312.126 220.336L312.168 220.281L312.182 220.267C311.933 220.35 311.614 220.391 311.227 220.391C310.203 220.391 309.346 220.064 308.654 219.409C307.971 218.745 307.63 217.943 307.63 217.002ZM309.539 215.425C309.096 215.84 308.875 216.365 308.875 217.002C308.875 217.638 309.096 218.168 309.539 218.593C309.991 219.008 310.577 219.215 311.296 219.215C312.016 219.215 312.597 219.008 313.039 218.593C313.491 218.168 313.717 217.638 313.717 217.002C313.717 216.365 313.491 215.84 313.039 215.425C312.597 215 312.016 214.788 311.296 214.788C310.577 214.788 309.991 215 309.539 215.425ZM316.517 216.836C316.175 216.485 316.005 216.079 316.005 215.618C316.005 215.157 316.175 214.756 316.517 214.415C316.867 214.064 317.296 213.889 317.803 213.889C318.31 213.889 318.735 214.064 319.076 214.415C319.426 214.756 319.602 215.157 319.602 215.618C319.602 216.079 319.426 216.485 319.076 216.836C318.735 217.177 318.31 217.348 317.803 217.348C317.296 217.348 316.867 217.177 316.517 216.836ZM317.208 215.023C317.052 215.18 316.973 215.379 316.973 215.618C316.973 215.858 317.052 216.056 317.208 216.213C317.365 216.37 317.563 216.448 317.803 216.448C318.043 216.448 318.241 216.37 318.398 216.213C318.555 216.056 318.633 215.858 318.633 215.618C318.633 215.379 318.555 215.18 318.398 215.023C318.241 214.867 318.043 214.788 317.803 214.788C317.563 214.788 317.365 214.867 317.208 215.023Z" fill="#0D0D0D"/>
<path d="M304.033 174V172.824L307.215 170.472C308.091 169.817 308.714 169.255 309.083 168.784C309.451 168.314 309.636 167.77 309.636 167.152C309.636 166.589 309.442 166.128 309.055 165.768C308.677 165.399 308.179 165.215 307.561 165.215C306.768 165.215 306.177 165.538 305.79 166.183C305.605 166.479 305.481 166.801 305.416 167.152H304.102C304.185 166.58 304.365 166.064 304.642 165.602C305.296 164.56 306.27 164.039 307.561 164.039C308.52 164.039 309.313 164.339 309.94 164.938C310.567 165.538 310.881 166.276 310.881 167.152C310.881 167.991 310.641 168.729 310.162 169.365C309.691 169.993 308.986 170.638 308.045 171.302L306.039 172.727L305.901 172.81V172.838L306.025 172.824H310.881V174H304.033ZM313.542 172.852C312.693 171.902 312.269 170.67 312.269 169.158C312.269 167.645 312.693 166.414 313.542 165.464C314.39 164.514 315.418 164.039 316.627 164.039C317.835 164.039 318.863 164.514 319.712 165.464C320.56 166.414 320.984 167.645 320.984 169.158C320.984 170.67 320.56 171.902 319.712 172.852C318.863 173.802 317.835 174.277 316.627 174.277C315.418 174.277 314.39 173.802 313.542 172.852ZM314.385 166.266C313.804 166.958 313.514 167.922 313.514 169.158C313.514 170.394 313.804 171.362 314.385 172.063C314.976 172.755 315.723 173.101 316.627 173.101C317.53 173.101 318.273 172.755 318.854 172.063C319.444 171.362 319.739 170.394 319.739 169.158C319.739 167.922 319.444 166.958 318.854 166.266C318.273 165.565 317.53 165.215 316.627 165.215C315.723 165.215 314.976 165.565 314.385 166.266Z" fill="#505050"/>
</g>
<g clip-path="url(#clip8_1162_24313)">
<g clip-path="url(#clip9_1162_24313)">
<path d="M412.51 199.045C415.057 199.045 417.121 196.98 417.121 194.433C417.121 191.886 415.057 189.822 412.51 189.822C409.963 189.822 407.898 191.886 407.898 194.433C407.898 196.98 409.963 199.045 412.51 199.045Z" stroke="#878787" stroke-width="2.30574" stroke-linecap="round" stroke-linejoin="round"/>
<path d="M405.939 201.005L405.131 201.812M402.134 194.433H403.287H402.134ZM412.51 184.057V185.21V184.057ZM421.733 194.433H422.886H421.733ZM412.51 203.656V204.809V203.656ZM405.131 187.055L405.939 187.862L405.131 187.055ZM419.888 187.055L419.081 187.862L419.888 187.055ZM419.081 201.005L419.888 201.812L419.081 201.005Z" stroke="#878787" stroke-width="2.30574" stroke-linecap="round" stroke-linejoin="round"/>
</g>
<path d="M404.786 216.725V215.342L406.653 213.889H407.76V223.573H406.515V215.411L404.786 216.725ZM409.563 220.945H410.808C410.891 221.286 411.034 221.576 411.237 221.816C411.698 222.388 412.362 222.674 413.229 222.674C413.939 222.674 414.506 222.476 414.931 222.079C415.364 221.682 415.581 221.166 415.581 220.53C415.581 219.893 415.364 219.377 414.931 218.98C414.506 218.583 413.939 218.385 413.229 218.385C412.593 218.385 412.044 218.56 411.583 218.911C411.389 219.049 411.223 219.22 411.085 219.423H409.978L410.393 213.889H416.134V215.065H411.43L411.223 217.887V217.901C411.38 217.763 411.555 217.647 411.749 217.555C412.265 217.325 412.805 217.209 413.367 217.209C414.363 217.209 415.189 217.527 415.844 218.164C416.498 218.8 416.826 219.589 416.826 220.53C416.826 221.48 416.489 222.273 415.816 222.909C415.152 223.536 414.29 223.85 413.229 223.85C411.864 223.85 410.845 223.366 410.171 222.397C409.858 221.964 409.655 221.48 409.563 220.945ZM418.379 216.836C418.037 216.485 417.867 216.079 417.867 215.618C417.867 215.157 418.037 214.756 418.379 214.415C418.729 214.064 419.158 213.889 419.665 213.889C420.172 213.889 420.597 214.064 420.938 214.415C421.288 214.756 421.464 215.157 421.464 215.618C421.464 216.079 421.288 216.485 420.938 216.836C420.597 217.177 420.172 217.348 419.665 217.348C419.158 217.348 418.729 217.177 418.379 216.836ZM419.07 215.023C418.913 215.18 418.835 215.379 418.835 215.618C418.835 215.858 418.913 216.056 419.07 216.213C419.227 216.37 419.425 216.448 419.665 216.448C419.905 216.448 420.103 216.37 420.26 216.213C420.417 216.056 420.495 215.858 420.495 215.618C420.495 215.379 420.417 215.18 420.26 215.023C420.103 214.867 419.905 214.788 419.665 214.788C419.425 214.788 419.227 214.867 419.07 215.023Z" fill="#0D0D0D"/>
<path d="M405.939 167.152V165.768L407.806 164.316H408.913V174H407.668V165.838L405.939 167.152ZM410.439 174V172.824L413.621 170.472C414.497 169.817 415.12 169.255 415.489 168.784C415.858 168.314 416.042 167.77 416.042 167.152C416.042 166.589 415.848 166.128 415.461 165.768C415.083 165.399 414.585 165.215 413.967 165.215C413.174 165.215 412.583 165.538 412.196 166.183C412.012 166.479 411.887 166.801 411.823 167.152H410.508C410.591 166.58 410.771 166.064 411.048 165.602C411.703 164.56 412.676 164.039 413.967 164.039C414.926 164.039 415.719 164.339 416.346 164.938C416.974 165.538 417.287 166.276 417.287 167.152C417.287 167.991 417.047 168.729 416.568 169.365C416.097 169.993 415.392 170.638 414.451 171.302L412.445 172.727L412.307 172.81V172.838L412.431 172.824H417.287V174H410.439Z" fill="#505050"/>
</g>
<g clip-path="url(#clip10_1162_24313)">
<path d="M281 79C277.257 79 273.667 77.5777 271.02 75.0459C268.373 72.5142 266.886 69.0804 266.886 65.5C266.886 61.9196 268.373 58.4858 271.02 55.954C273.667 53.4223 277.257 52 281 52C281.884 48.0615 284.47 44.6004 288.19 42.3781C290.031 41.2777 292.096 40.5146 294.265 40.1323C296.435 39.75 298.666 39.756 300.833 40.15C303 40.5439 305.059 41.3182 306.894 42.4284C308.728 43.5387 310.302 44.9632 311.524 46.6208C312.747 48.2783 313.595 50.1363 314.019 52.0888C314.444 54.0412 314.438 56.0498 314 58H317C319.785 58 322.455 59.1062 324.424 61.0754C326.394 63.0445 327.5 65.7152 327.5 68.5C327.5 71.2847 326.394 73.9555 324.424 75.9246C322.455 77.8937 319.785 79 317 79H281Z" stroke="#505050" stroke-width="2.30574" stroke-linecap="round" stroke-linejoin="round"/>
</g>
<path d="M256.993 112.984C255.345 111.304 254.521 109.176 254.521 106.6C254.521 104.024 255.345 101.904 256.993 100.24C258.657 98.56 260.753 97.72 263.281 97.72C266.113 97.72 268.345 98.744 269.977 100.792C270.697 101.672 271.225 102.688 271.561 103.84H269.401C269.065 103.04 268.641 102.36 268.129 101.8C266.865 100.44 265.249 99.76 263.281 99.76C261.345 99.76 259.761 100.392 258.529 101.656C257.297 102.92 256.681 104.568 256.681 106.6C256.681 108.632 257.297 110.28 258.529 111.544C259.761 112.808 261.345 113.44 263.281 113.44C265.281 113.44 266.937 112.704 268.249 111.232C268.777 110.624 269.201 109.88 269.521 109H271.681C271.297 110.248 270.737 111.328 270.001 112.24C268.321 114.4 266.081 115.48 263.281 115.48C260.753 115.48 258.657 114.648 256.993 112.984ZM274.317 115V98.2H276.237V113.2H278.997V115H274.317ZM281.982 113.464C280.798 112.28 280.206 110.792 280.206 109C280.206 107.208 280.798 105.72 281.982 104.536C283.166 103.352 284.654 102.76 286.446 102.76C288.238 102.76 289.726 103.352 290.91 104.536C292.094 105.72 292.686 107.208 292.686 109C292.686 110.792 292.094 112.28 290.91 113.464C289.726 114.648 288.238 115.24 286.446 115.24C284.654 115.24 283.166 114.648 281.982 113.464ZM283.35 105.808C282.534 106.64 282.126 107.704 282.126 109C282.126 110.296 282.534 111.36 283.35 112.192C284.166 113.024 285.198 113.44 286.446 113.44C287.694 113.44 288.726 113.024 289.542 112.192C290.358 111.36 290.766 110.296 290.766 109C290.766 107.704 290.358 106.64 289.542 105.808C288.726 104.976 287.694 104.56 286.446 104.56C285.198 104.56 284.166 104.976 283.35 105.808ZM295.317 110.08V103H297.237V109.96C297.237 111.112 297.525 111.984 298.101 112.576C298.677 113.152 299.469 113.44 300.477 113.44C301.581 113.44 302.477 113.08 303.165 112.36C303.853 111.624 304.197 110.664 304.197 109.48V103H306.117V115H304.197V113.2H304.173C303.917 113.6 303.597 113.944 303.213 114.232C302.349 114.904 301.317 115.24 300.117 115.24C298.661 115.24 297.493 114.784 296.613 113.872C295.749 112.944 295.317 111.68 295.317 110.08ZM310.433 113.464C309.313 112.264 308.753 110.776 308.753 109C308.753 107.224 309.313 105.744 310.433 104.56C311.553 103.36 312.913 102.76 314.513 102.76C315.521 102.76 316.377 102.952 317.081 103.336C317.785 103.72 318.289 104.128 318.593 104.56L318.809 104.92H318.833V98.2H320.753V115H318.833V113.08H318.809L318.593 113.416C318.305 113.848 317.809 114.264 317.105 114.664C316.401 115.048 315.537 115.24 314.513 115.24C312.913 115.24 311.553 114.648 310.433 113.464ZM311.825 105.808C311.057 106.64 310.673 107.704 310.673 109C310.673 110.296 311.057 111.36 311.825 112.192C312.609 113.024 313.585 113.44 314.753 113.44C315.921 113.44 316.889 113.024 317.657 112.192C318.441 111.36 318.833 110.296 318.833 109C318.833 107.704 318.441 106.64 317.657 105.808C316.889 104.976 315.921 104.56 314.753 104.56C313.585 104.56 312.609 104.976 311.825 105.808ZM322.921 103H324.961L327.601 113.2H329.401L332.521 103H334.561L329.521 119.56H327.481L328.921 115H326.161L322.921 103Z" fill="#505050"/>
<path d="M86 54.6V42.6L102.2 30H111.8V114H101V43.2L86 54.6ZM125.038 114V103.8L152.638 83.4C160.238 77.72 165.638 72.84 168.838 68.76C172.038 64.68 173.638 59.96 173.638 54.6C173.638 49.72 171.958 45.72 168.598 42.6C165.318 39.4 160.998 37.8 155.638 37.8C148.758 37.8 143.638 40.6 140.278 46.2C138.678 48.76 137.598 51.56 137.038 54.6H125.638C126.358 49.64 127.918 45.16 130.318 41.16C135.998 32.12 144.438 27.6 155.638 27.6C163.958 27.6 170.838 30.2 176.278 35.4C181.718 40.6 184.438 47 184.438 54.6C184.438 61.88 182.358 68.28 178.198 73.8C174.118 79.24 167.998 84.84 159.838 90.6L142.438 102.96L141.238 103.68V103.92L142.318 103.8H184.438V114H125.038ZM198.515 55.56C195.555 52.52 194.075 49 194.075 45C194.075 41 195.555 37.52 198.515 34.56C201.555 31.52 205.275 30 209.675 30C214.075 30 217.755 31.52 220.715 34.56C223.755 37.52 225.275 41 225.275 45C225.275 49 223.755 52.52 220.715 55.56C217.755 58.52 214.075 60 209.675 60C205.275 60 201.555 58.52 198.515 55.56ZM204.515 39.84C203.155 41.2 202.475 42.92 202.475 45C202.475 47.08 203.155 48.8 204.515 50.16C205.875 51.52 207.595 52.2 209.675 52.2C211.755 52.2 213.475 51.52 214.835 50.16C216.195 48.8 216.875 47.08 216.875 45C216.875 42.92 216.195 41.2 214.835 39.84C213.475 38.48 211.755 37.8 209.675 37.8C207.595 37.8 205.875 38.48 204.515 39.84Z" fill="#0D0D0D"/>
<defs>
<clipPath id="clip0_1162_24313">
<rect width="27.6689" height="66.8665" fill="white" transform="translate(0 161)"/>
</clipPath>
<clipPath id="clip1_1162_24313">
<rect width="27.6689" height="27.6689" fill="white" transform="translate(-0.331055 180.599)"/>
</clipPath>
<clipPath id="clip2_1162_24313">
<rect width="27.6689" height="66.8665" fill="white" transform="translate(99.6689 161)"/>
</clipPath>
<clipPath id="clip3_1162_24313">
<rect width="27.6689" height="27.6689" fill="white" transform="translate(99.6689 180.599)"/>
</clipPath>
<clipPath id="clip4_1162_24313">
<rect width="27.6689" height="66.8665" fill="white" transform="translate(199.338 161)"/>
</clipPath>
<clipPath id="clip5_1162_24313">
<rect width="27.6689" height="27.6689" fill="white" transform="translate(199.338 180.599)"/>
</clipPath>
<clipPath id="clip6_1162_24313">
<rect width="27.6689" height="66.8665" fill="white" transform="translate(299.007 161)"/>
</clipPath>
<clipPath id="clip7_1162_24313">
<rect width="27.6689" height="27.6689" fill="white" transform="translate(299.007 180.599)"/>
</clipPath>
<clipPath id="clip8_1162_24313">
<rect width="27.6689" height="66.8665" fill="white" transform="translate(398.676 161)"/>
</clipPath>
<clipPath id="clip9_1162_24313">
<rect width="27.6689" height="27.6689" fill="white" transform="translate(398.676 180.599)"/>
</clipPath>
<clipPath id="clip10_1162_24313">
<rect width="72" height="72" fill="white" transform="translate(260 25)"/>
</clipPath>
</defs>
</svg>
