<svg width="134" height="108" viewBox="0 0 134 108" fill="none" xmlns="http://www.w3.org/2000/svg">
<rect width="134" height="108" fill="#FAFAFA"/>
<rect x="8.12109" y="60.7502" width="117.556" height="24" rx="12" fill="#0D0D0D"/>
<path d="M64.2146 32.9999C64.2146 32.2042 64.5355 31.4412 65.1066 30.8786C65.6777 30.3159 66.4524 29.9999 67.2601 29.9999C68.0678 29.9999 68.8424 30.3159 69.4135 30.8786C69.9847 31.4412 70.3055 32.2042 70.3055 32.9999C70.301 35.5004 69.2853 37.4999 67.254 38.9999H67.2662L55.1285 45.6419C54.6535 45.9017 54.2577 46.282 53.9822 46.7433C53.7067 47.2046 53.5615 47.7302 53.5616 48.2654V49.4999C53.5616 50.2955 53.8825 51.0586 54.4536 51.6212C55.0247 52.1838 55.7994 52.4999 56.6071 52.4999H77.9252C78.733 52.4999 79.5076 52.1838 80.0787 51.6212C80.6498 51.0586 80.9707 50.2955 80.9707 49.4999V48.2654C80.9708 47.7302 80.8256 47.2046 80.5501 46.7433C80.2746 46.282 79.8788 45.9017 79.4038 45.6419L67.2662 38.9999" stroke="#0D0D0D" stroke-width="2" stroke-linecap="round" stroke-linejoin="round"/>
<path d="M27.6328 65.8H29.5528L31.5048 75.4H31.7448L33.6328 65.8H36.4328L38.4008 75.4H38.6408L40.5128 65.8H42.3528L40.0328 77H37.0728L35.1528 67.8H34.9128L33.0728 77H30.0328L27.6328 65.8ZM44.5558 75.992C43.8305 75.2027 43.4678 74.1787 43.4678 72.92C43.4678 71.6613 43.8305 70.6427 44.5558 69.864C45.2918 69.0747 46.2092 68.68 47.3078 68.68C48.0012 68.68 48.6358 68.8827 49.2118 69.288C49.4572 69.4587 49.6758 69.656 49.8678 69.88H49.9478V68.84H51.6278V77H49.9478V75.88H49.8678C49.7078 76.104 49.4892 76.3173 49.2118 76.52C48.6358 76.9467 48.0012 77.16 47.3078 77.16C46.2092 77.16 45.2918 76.7707 44.5558 75.992ZM45.8678 70.904C45.4412 71.3733 45.2278 72.0453 45.2278 72.92C45.2278 73.7947 45.4412 74.4667 45.8678 74.936C46.2945 75.4053 46.8812 75.64 47.6278 75.64C48.3318 75.64 48.8918 75.4053 49.3078 74.936C49.7345 74.456 49.9478 73.784 49.9478 72.92C49.9478 72.056 49.7345 71.3893 49.3078 70.92C48.8918 70.44 48.3318 70.2 47.6278 70.2C46.8812 70.2 46.2945 70.4347 45.8678 70.904ZM54.2653 77V68.84H55.9453V70.04H56.0253C56.1427 69.816 56.3133 69.6027 56.5373 69.4C57.028 68.9733 57.604 68.76 58.2653 68.76H59.2253V70.36H58.1853C57.5347 70.36 56.996 70.568 56.5693 70.984C56.1533 71.3893 55.9453 71.928 55.9453 72.6V77H54.2653ZM61.8315 75.992C61.1061 75.2027 60.7435 74.1787 60.7435 72.92C60.7435 71.6613 61.1061 70.6427 61.8315 69.864C62.5675 69.0747 63.4848 68.68 64.5835 68.68C65.2768 68.68 65.9115 68.8827 66.4875 69.288C66.7328 69.4587 66.9515 69.656 67.1435 69.88H67.2235V65.8H68.9035V77H67.2235V75.96H67.1435C66.9621 76.184 66.7435 76.3867 66.4875 76.568C65.9221 76.9627 65.2875 77.16 64.5835 77.16C63.4848 77.16 62.5675 76.7707 61.8315 75.992ZM63.1435 70.904C62.7168 71.3733 62.5035 72.0453 62.5035 72.92C62.5035 73.7947 62.7168 74.4667 63.1435 74.936C63.5701 75.4053 64.1568 75.64 64.9035 75.64C65.6075 75.64 66.1675 75.4053 66.5835 74.936C67.0101 74.456 67.2235 73.784 67.2235 72.92C67.2235 72.056 67.0101 71.3893 66.5835 70.92C66.1675 70.44 65.6075 70.2 64.9035 70.2C64.1568 70.2 63.5701 70.4347 63.1435 70.904ZM71.541 77V68.84H73.221V70.04H73.301C73.4183 69.816 73.589 69.6027 73.813 69.4C74.3036 68.9733 74.8796 68.76 75.541 68.76H76.501V70.36H75.461C74.8103 70.36 74.2716 70.568 73.845 70.984C73.429 71.3893 73.221 71.928 73.221 72.6V77H71.541ZM79.2351 75.944C78.4244 75.1227 78.0191 74.1147 78.0191 72.92C78.0191 71.7253 78.4244 70.7227 79.2351 69.912C80.0564 69.0907 81.0644 68.68 82.2591 68.68C83.4538 68.68 84.4564 69.0907 85.2671 69.912C86.0884 70.7227 86.4991 71.7253 86.4991 72.92C86.4991 74.1147 86.0884 75.1227 85.2671 75.944C84.4564 76.7547 83.4538 77.16 82.2591 77.16C81.0644 77.16 80.0564 76.7547 79.2351 75.944ZM80.4671 70.952C80.0084 71.4427 79.7791 72.0987 79.7791 72.92C79.7791 73.7413 80.0084 74.4027 80.4671 74.904C80.9258 75.3947 81.5231 75.64 82.2591 75.64C82.9951 75.64 83.5924 75.3947 84.0511 74.904C84.5098 74.4027 84.7391 73.7413 84.7391 72.92C84.7391 72.0987 84.5098 71.4427 84.0511 70.952C83.5924 70.4507 82.9951 70.2 82.2591 70.2C81.5231 70.2 80.9258 70.4507 80.4671 70.952ZM88.6604 77V65.8H90.3404V69.88H90.4204C90.6124 69.656 90.831 69.4587 91.0764 69.288C91.6524 68.8827 92.287 68.68 92.9804 68.68C94.079 68.68 94.991 69.0747 95.7164 69.864C96.4524 70.6427 96.8204 71.6613 96.8204 72.92C96.8204 74.1787 96.4524 75.2027 95.7164 75.992C94.991 76.7707 94.079 77.16 92.9804 77.16C92.2764 77.16 91.6417 76.9627 91.0764 76.568C90.8204 76.3867 90.6017 76.184 90.4204 75.96H90.3404V77H88.6604ZM90.9644 70.92C90.5484 71.3893 90.3404 72.056 90.3404 72.92C90.3404 73.784 90.5484 74.456 90.9644 74.936C91.391 75.4053 91.9564 75.64 92.6604 75.64C93.407 75.64 93.9937 75.4053 94.4204 74.936C94.847 74.4667 95.0604 73.7947 95.0604 72.92C95.0604 72.0453 94.847 71.3733 94.4204 70.904C93.9937 70.4347 93.407 70.2 92.6604 70.2C91.9564 70.2 91.391 70.44 90.9644 70.92ZM99.6979 75.944C98.8979 75.1227 98.4979 74.1147 98.4979 72.92C98.4979 71.7253 98.8979 70.7227 99.6979 69.912C100.509 69.0907 101.495 68.68 102.658 68.68C103.821 68.68 104.802 69.0907 105.602 69.912C106.413 70.7227 106.818 71.7253 106.818 72.92V73.48H100.178C100.306 74.152 100.599 74.68 101.058 75.064C101.517 75.448 102.05 75.64 102.658 75.64C103.405 75.64 104.002 75.4533 104.45 75.08C104.653 74.9307 104.829 74.744 104.978 74.52H106.738C106.514 75.0427 106.231 75.4853 105.89 75.848C105.015 76.7227 103.938 77.16 102.658 77.16C101.495 77.16 100.509 76.7547 99.6979 75.944ZM100.258 72.12H105.058C104.962 71.5867 104.706 71.1333 104.29 70.76C103.885 70.3867 103.341 70.2 102.658 70.2C102.082 70.2 101.57 70.376 101.122 70.728C100.674 71.0693 100.386 71.5333 100.258 72.12Z" fill="white"/>
</svg>
